<svg xmlns="http://www.w3.org/2000/svg" xmlns:xlink="http://www.w3.org/1999/xlink" width="500" zoomAndPan="magnify" viewBox="0 0 375 374.999991" height="500" preserveAspectRatio="xMidYMid meet" version="1.0"><defs><clipPath id="43e838e9b7"><path d="M 69.273438 0 L 306.273438 0 L 306.273438 375 L 69.273438 375 Z M 69.273438 0 " clip-rule="nonzero"/></clipPath><clipPath id="26c51cc5e9"><path d="M 148 267 L 227 267 L 227 345.292969 L 148 345.292969 Z M 148 267 " clip-rule="nonzero"/></clipPath></defs><g clip-path="url(#43e838e9b7)"><path fill="#000000" d="M 228.875 364.847656 C 231.65625 364.769531 234.390625 365.101562 237.070312 365.847656 C 239.753906 366.59375 242.265625 367.714844 244.609375 369.21875 L 249.433594 372.613281 L 254.300781 369.199219 C 256.640625 367.699219 259.152344 366.582031 261.832031 365.839844 C 264.507812 365.097656 267.238281 364.769531 270.015625 364.847656 C 282.03125 364.847656 289.703125 370.757812 289.703125 374.816406 L 306.335938 374.816406 L 306.335938 0.183594 L 289.703125 0.183594 C 289.703125 4.34375 282.03125 10.152344 270.015625 10.152344 C 267.238281 10.230469 264.507812 9.902344 261.832031 9.160156 C 259.152344 8.417969 256.640625 7.300781 254.300781 5.800781 L 249.433594 2.386719 L 244.609375 5.78125 C 242.265625 7.285156 239.753906 8.40625 237.070312 9.152344 C 234.390625 9.898438 231.65625 10.230469 228.875 10.152344 C 226.09375 10.230469 223.359375 9.898438 220.679688 9.15625 C 217.996094 8.417969 215.484375 7.296875 213.136719 5.800781 L 208.332031 2.386719 L 203.53125 5.78125 C 201.183594 7.28125 198.664062 8.40625 195.980469 9.152344 C 193.292969 9.894531 190.558594 10.230469 187.773438 10.152344 C 184.988281 10.230469 182.25 9.894531 179.566406 9.152344 C 176.878906 8.40625 174.363281 7.28125 172.015625 5.78125 L 167.210938 2.386719 L 162.410156 5.800781 C 160.0625 7.296875 157.546875 8.417969 154.867188 9.15625 C 152.183594 9.898438 149.453125 10.230469 146.671875 10.152344 C 143.894531 10.230469 141.164062 9.898438 138.488281 9.15625 C 135.808594 8.417969 133.296875 7.296875 130.957031 5.800781 L 126.152344 2.386719 L 121.351562 5.78125 C 119 7.28125 116.484375 8.40625 113.800781 9.152344 C 111.113281 9.894531 108.378906 10.230469 105.59375 10.152344 C 93.574219 10.152344 85.90625 4.34375 85.90625 0.183594 L 69.273438 0.183594 L 69.273438 374.816406 L 85.90625 374.816406 C 85.90625 370.757812 93.574219 364.847656 105.59375 364.847656 C 108.378906 364.769531 111.113281 365.105469 113.800781 365.847656 C 116.484375 366.59375 119 367.71875 121.351562 369.21875 L 126.152344 372.613281 L 130.957031 369.199219 C 133.296875 367.703125 135.808594 366.582031 138.488281 365.84375 C 141.164062 365.101562 143.894531 364.769531 146.671875 364.847656 C 149.453125 364.769531 152.183594 365.101562 154.867188 365.84375 C 157.546875 366.582031 160.0625 367.703125 162.410156 369.199219 L 167.210938 372.613281 L 172.015625 369.21875 C 174.363281 367.71875 176.878906 366.59375 179.566406 365.847656 C 182.25 365.105469 184.988281 364.769531 187.773438 364.847656 C 190.558594 364.769531 193.292969 365.105469 195.980469 365.847656 C 198.664062 366.59375 201.183594 367.71875 203.53125 369.21875 L 208.332031 372.613281 L 213.136719 369.199219 C 215.484375 367.703125 217.996094 366.582031 220.679688 365.84375 C 223.359375 365.101562 226.09375 364.769531 228.875 364.847656 Z M 208.3125 352.757812 C 205.097656 351.253906 201.757812 350.121094 198.292969 349.351562 C 194.828125 348.582031 191.320312 348.199219 187.773438 348.199219 C 184.222656 348.199219 180.71875 348.582031 177.253906 349.351562 C 173.789062 350.121094 170.449219 351.253906 167.234375 352.757812 C 164.023438 351.222656 160.683594 350.070312 157.210938 349.300781 C 153.742188 348.53125 150.226562 348.164062 146.671875 348.199219 C 143.121094 348.164062 139.609375 348.53125 136.140625 349.300781 C 132.671875 350.070312 129.335938 351.222656 126.132812 352.757812 C 122.925781 351.222656 119.589844 350.070312 116.121094 349.300781 C 112.652344 348.53125 109.144531 348.164062 105.59375 348.199219 C 98.722656 348.140625 92.160156 349.527344 85.902344 352.359375 L 85.902344 22.679688 C 92.160156 25.511719 98.722656 26.902344 105.59375 26.84375 C 109.144531 26.878906 112.652344 26.511719 116.121094 25.742188 C 119.589844 24.972656 122.925781 23.820312 126.132812 22.285156 C 129.335938 23.820312 132.671875 24.972656 136.140625 25.742188 C 139.609375 26.511719 143.121094 26.878906 146.671875 26.84375 C 150.226562 26.878906 153.742188 26.511719 157.210938 25.742188 C 160.683594 24.972656 164.023438 23.820312 167.234375 22.285156 C 170.4375 23.8125 173.777344 24.957031 177.246094 25.71875 C 180.714844 26.480469 184.222656 26.84375 187.773438 26.800781 C 191.324219 26.835938 194.835938 26.46875 198.304688 25.699219 C 201.769531 24.929688 205.109375 23.777344 208.3125 22.242188 C 211.519531 23.777344 214.859375 24.929688 218.332031 25.699219 C 221.804688 26.46875 225.316406 26.835938 228.875 26.800781 C 232.425781 26.835938 235.9375 26.46875 239.402344 25.699219 C 242.871094 24.929688 246.207031 23.777344 249.414062 22.242188 C 252.617188 23.78125 255.953125 24.933594 259.421875 25.703125 C 262.890625 26.472656 266.402344 26.839844 269.953125 26.800781 C 276.820312 26.859375 283.382812 25.472656 289.640625 22.640625 L 289.640625 352.320312 C 286.464844 350.925781 283.179688 349.878906 279.78125 349.1875 C 276.382812 348.492188 272.949219 348.164062 269.480469 348.203125 C 266.011719 348.238281 262.585938 348.640625 259.203125 349.410156 C 255.824219 350.175781 252.558594 351.292969 249.414062 352.757812 C 246.195312 351.253906 242.855469 350.121094 239.386719 349.351562 C 235.921875 348.582031 232.414062 348.195312 228.863281 348.195312 C 225.3125 348.195312 221.804688 348.582031 218.339844 349.351562 C 214.871094 350.121094 211.53125 351.253906 208.3125 352.757812 Z M 208.3125 352.757812 " fill-opacity="1" fill-rule="nonzero"/></g><path fill="#000000" d="M 114.511719 57.585938 L 223.09375 57.585938 L 223.09375 74.234375 L 114.511719 74.234375 Z M 114.511719 57.585938 " fill-opacity="1" fill-rule="nonzero"/><path fill="#000000" d="M 239.953125 57.585938 L 261.035156 57.585938 L 261.035156 74.234375 L 239.953125 74.234375 Z M 239.953125 57.585938 " fill-opacity="1" fill-rule="nonzero"/><path fill="#000000" d="M 152.453125 94.507812 L 261.035156 94.507812 L 261.035156 111.15625 L 152.453125 111.15625 Z M 152.453125 94.507812 " fill-opacity="1" fill-rule="nonzero"/><path fill="#000000" d="M 114.511719 94.507812 L 135.589844 94.507812 L 135.589844 111.15625 L 114.511719 111.15625 Z M 114.511719 94.507812 " fill-opacity="1" fill-rule="nonzero"/><path fill="#000000" d="M 114.511719 131.449219 L 223.09375 131.449219 L 223.09375 148.101562 L 114.511719 148.101562 Z M 114.511719 131.449219 " fill-opacity="1" fill-rule="nonzero"/><path fill="#000000" d="M 239.953125 131.449219 L 261.035156 131.449219 L 261.035156 148.101562 L 239.953125 148.101562 Z M 239.953125 131.449219 " fill-opacity="1" fill-rule="nonzero"/><path fill="#000000" d="M 152.453125 168.394531 L 261.035156 168.394531 L 261.035156 185.042969 L 152.453125 185.042969 Z M 152.453125 168.394531 " fill-opacity="1" fill-rule="nonzero"/><path fill="#000000" d="M 114.511719 168.394531 L 135.589844 168.394531 L 135.589844 185.042969 L 114.511719 185.042969 Z M 114.511719 168.394531 " fill-opacity="1" fill-rule="nonzero"/><path fill="#000000" d="M 114.511719 205.316406 L 223.09375 205.316406 L 223.09375 221.964844 L 114.511719 221.964844 Z M 114.511719 205.316406 " fill-opacity="1" fill-rule="nonzero"/><path fill="#000000" d="M 239.953125 205.316406 L 261.035156 205.316406 L 261.035156 221.964844 L 239.953125 221.964844 Z M 239.953125 205.316406 " fill-opacity="1" fill-rule="nonzero"/><path fill="#000000" d="M 114.511719 242.257812 L 223.09375 242.257812 L 223.09375 258.910156 L 114.511719 258.910156 Z M 114.511719 242.257812 " fill-opacity="1" fill-rule="nonzero"/><path fill="#000000" d="M 239.953125 242.257812 L 261.035156 242.257812 L 261.035156 258.910156 L 239.953125 258.910156 Z M 239.953125 242.257812 " fill-opacity="1" fill-rule="nonzero"/><path fill="#000000" d="M 192.773438 297.929688 L 183.023438 303.539062 C 182.769531 303.679688 182.617188 303.949219 182.621094 304.242188 L 182.621094 308.945312 C 182.617188 309.230469 182.773438 309.492188 183.023438 309.625 L 187.105469 311.976562 C 187.34375 312.128906 187.648438 312.128906 187.882812 311.976562 L 204.734375 302.285156 C 207.59375 300.632812 207.59375 295.871094 204.734375 294.21875 L 189.589844 285.507812 C 188.304688 284.730469 186.691406 284.730469 185.402344 285.507812 L 170.261719 294.222656 C 168.945312 294.957031 168.132812 296.347656 168.144531 297.855469 C 168.144531 303.691406 168.167969 309.5 168.144531 315.308594 C 168.128906 316.8125 168.9375 318.203125 170.25 318.941406 L 185.390625 327.679688 C 186.683594 328.429688 188.285156 328.429688 189.578125 327.679688 L 204.734375 318.941406 C 206.046875 318.203125 206.84375 316.808594 206.816406 315.308594 L 206.816406 307.71875 L 188.792969 318.136719 C 187.988281 318.613281 186.988281 318.613281 186.183594 318.136719 L 178.132812 313.480469 C 177.320312 313.023438 176.820312 312.15625 176.828125 311.226562 L 176.828125 301.9375 C 176.824219 301.019531 177.3125 300.167969 178.105469 299.707031 C 180.789062 298.152344 183.496094 296.601562 186.179688 295.046875 C 186.984375 294.574219 187.984375 294.574219 188.789062 295.046875 L 192.785156 297.328125 C 192.949219 297.429688 193 297.644531 192.898438 297.808594 C 192.867188 297.859375 192.824219 297.898438 192.773438 297.929688 Z M 192.773438 297.929688 " fill-opacity="1" fill-rule="nonzero"/><g clip-path="url(#26c51cc5e9)"><path fill="#000000" d="M 224.929688 296.570312 C 222.25 286.585938 215.839844 278.242188 206.878906 273.074219 C 197.917969 267.90625 187.480469 266.535156 177.484375 269.210938 C 167.492188 271.886719 159.136719 278.289062 153.964844 287.238281 C 148.789062 296.1875 147.414062 306.617188 150.09375 316.597656 C 152.773438 326.582031 159.183594 334.925781 168.144531 340.09375 C 174.113281 343.535156 180.734375 345.292969 187.449219 345.292969 C 190.8125 345.292969 194.199219 344.851562 197.539062 343.957031 C 207.53125 341.28125 215.886719 334.878906 221.058594 325.929688 C 226.234375 316.980469 227.609375 306.550781 224.929688 296.570312 Z M 222.894531 314.789062 L 220.199219 314.066406 C 219.550781 313.894531 218.882812 314.277344 218.710938 314.925781 C 218.535156 315.570312 218.921875 316.238281 219.570312 316.410156 L 222.261719 317.132812 C 221.460938 319.746094 220.359375 322.289062 218.953125 324.714844 C 217.554688 327.136719 215.90625 329.359375 214.042969 331.355469 L 212.285156 329.597656 C 212.230469 329.503906 212.164062 329.417969 212.085938 329.339844 C 211.613281 328.863281 210.84375 328.863281 210.367188 329.335938 L 210.335938 329.363281 C 210.105469 329.589844 209.976562 329.902344 209.976562 330.222656 C 209.976562 330.546875 210.105469 330.855469 210.332031 331.082031 L 212.328125 333.078125 C 208.316406 336.839844 203.46875 339.644531 198.078125 341.277344 L 197.351562 338.574219 C 197.269531 338.265625 197.0625 338 196.785156 337.835938 C 196.503906 337.675781 196.171875 337.632812 195.859375 337.71875 L 195.820312 337.730469 C 195.171875 337.902344 194.785156 338.566406 194.960938 339.214844 C 194.988281 339.328125 195.035156 339.433594 195.089844 339.527344 L 195.730469 341.90625 C 190.246094 343.183594 184.648438 343.175781 179.289062 341.925781 L 180.011719 339.230469 C 180.1875 338.582031 179.800781 337.914062 179.152344 337.742188 C 178.503906 337.570312 177.839844 337.953125 177.664062 338.601562 L 176.941406 341.289062 C 174.328125 340.488281 171.785156 339.390625 169.359375 337.988281 C 166.929688 336.589844 164.703125 334.9375 162.703125 333.078125 L 164.695312 331.082031 C 165.171875 330.609375 165.171875 329.839844 164.695312 329.367188 L 164.664062 329.335938 C 164.1875 328.859375 163.417969 328.859375 162.945312 329.335938 C 162.863281 329.417969 162.796875 329.507812 162.742188 329.601562 L 160.980469 331.363281 C 157.214844 327.355469 154.410156 322.511719 152.777344 317.128906 L 155.460938 316.410156 C 156.109375 316.238281 156.496094 315.570312 156.320312 314.925781 C 156.148438 314.277344 155.480469 313.890625 154.832031 314.066406 L 152.148438 314.785156 C 150.871094 309.308594 150.878906 303.714844 152.132812 298.363281 L 154.921875 299.109375 C 155.027344 299.136719 155.132812 299.152344 155.238281 299.152344 C 155.773438 299.152344 156.265625 298.792969 156.410156 298.25 C 156.585938 297.601562 156.199219 296.9375 155.550781 296.765625 L 152.765625 296.019531 C 153.566406 293.410156 154.667969 290.875 156.070312 288.453125 C 157.472656 286.023438 159.125 283.800781 160.992188 281.800781 L 163.015625 283.820312 C 163.253906 284.058594 163.566406 284.175781 163.875 284.175781 C 164.1875 284.175781 164.496094 284.058594 164.734375 283.820312 C 165.210938 283.347656 165.210938 282.578125 164.734375 282.105469 L 162.707031 280.078125 C 166.71875 276.324219 171.5625 273.523438 176.945312 271.890625 L 177.683594 274.644531 C 177.832031 275.1875 178.320312 275.542969 178.859375 275.542969 C 178.960938 275.542969 179.066406 275.53125 179.171875 275.503906 C 179.820312 275.328125 180.207031 274.664062 180.03125 274.015625 L 179.292969 271.261719 C 182.039062 270.621094 184.8125 270.304688 187.570312 270.304688 C 190.324219 270.304688 193.058594 270.621094 195.734375 271.242188 L 194.988281 274.03125 C 194.8125 274.675781 195.199219 275.34375 195.847656 275.515625 C 195.953125 275.542969 196.058594 275.558594 196.160156 275.558594 C 196.699219 275.558594 197.1875 275.199219 197.335938 274.65625 L 198.082031 271.875 C 200.695312 272.675781 203.238281 273.777344 205.664062 275.179688 C 208.089844 276.578125 210.316406 278.226562 212.316406 280.085938 L 210.296875 282.105469 C 209.820312 282.578125 209.820312 283.347656 210.296875 283.820312 C 210.53125 284.058594 210.84375 284.175781 211.15625 284.175781 C 211.464844 284.175781 211.777344 284.058594 212.015625 283.820312 L 214.039062 281.800781 C 217.800781 285.808594 220.609375 290.644531 222.242188 296.023438 L 219.480469 296.765625 C 218.832031 296.9375 218.445312 297.601562 218.621094 298.25 C 218.765625 298.792969 219.257812 299.152344 219.792969 299.152344 C 219.898438 299.152344 220.003906 299.136719 220.109375 299.109375 L 222.875 298.371094 C 224.152344 303.84375 224.144531 309.4375 222.894531 314.789062 Z M 222.894531 314.789062 " fill-opacity="1" fill-rule="nonzero"/></g><path fill="#000000" d="M 220.972656 305.40625 L 218.253906 305.40625 C 218.167969 303.160156 217.832031 300.890625 217.226562 298.632812 C 216.621094 296.382812 215.78125 294.257812 214.738281 292.277344 L 217.070312 290.933594 C 217.652344 290.597656 217.851562 289.855469 217.515625 289.273438 C 217.179688 288.691406 216.4375 288.496094 215.855469 288.828125 L 213.523438 290.175781 C 211.050781 286.269531 207.75 283.027344 203.925781 280.617188 L 205.292969 278.257812 C 205.628906 277.675781 205.429688 276.933594 204.847656 276.601562 C 204.265625 276.265625 203.523438 276.464844 203.1875 277.042969 L 201.824219 279.402344 C 197.820312 277.300781 193.351562 276.066406 188.726562 275.882812 L 188.726562 273.195312 C 188.726562 272.527344 188.183594 271.984375 187.511719 271.984375 C 186.839844 271.984375 186.296875 272.527344 186.296875 273.195312 L 186.296875 275.878906 C 184.058594 275.96875 181.800781 276.300781 179.550781 276.90625 C 177.300781 277.507812 175.175781 278.34375 173.195312 279.386719 L 171.84375 277.042969 C 171.507812 276.464844 170.765625 276.265625 170.183594 276.601562 C 169.601562 276.933594 169.402344 277.675781 169.738281 278.257812 L 171.089844 280.597656 C 167.179688 283.066406 163.929688 286.363281 161.519531 290.179688 L 159.175781 288.828125 C 158.59375 288.496094 157.851562 288.691406 157.515625 289.273438 C 157.179688 289.855469 157.378906 290.597656 157.960938 290.933594 L 160.304688 292.28125 C 158.1875 296.292969 156.953125 300.769531 156.773438 305.40625 L 154.046875 305.40625 C 153.375 305.40625 152.832031 305.949219 152.832031 306.621094 C 152.832031 307.292969 153.375 307.835938 154.046875 307.835938 L 156.773438 307.835938 C 156.863281 310.054688 157.199219 312.300781 157.796875 314.535156 C 158.402344 316.789062 159.246094 318.917969 160.292969 320.902344 L 157.972656 322.238281 C 157.390625 322.574219 157.191406 323.316406 157.527344 323.898438 C 157.753906 324.289062 158.160156 324.503906 158.582031 324.503906 C 158.789062 324.503906 158.996094 324.453125 159.1875 324.34375 L 161.507812 323.003906 C 163.980469 326.90625 167.28125 330.148438 171.101562 332.554688 L 169.894531 334.640625 C 169.816406 334.714844 169.746094 334.804688 169.6875 334.90625 C 169.351562 335.488281 169.550781 336.230469 170.132812 336.5625 L 170.175781 336.589844 C 170.367188 336.695312 170.574219 336.75 170.78125 336.75 C 171.199219 336.75 171.609375 336.53125 171.832031 336.140625 L 173.203125 333.769531 C 177.203125 335.871094 181.671875 337.101562 186.296875 337.285156 L 186.296875 340.046875 C 186.296875 340.714844 186.839844 341.257812 187.511719 341.257812 C 188.183594 341.257812 188.726562 340.714844 188.726562 340.046875 L 188.726562 337.289062 C 190.960938 337.199219 193.222656 336.867188 195.472656 336.261719 C 197.726562 335.660156 199.851562 334.820312 201.832031 333.78125 L 203.199219 336.140625 C 203.421875 336.53125 203.832031 336.746094 204.253906 336.746094 C 204.457031 336.746094 204.667969 336.695312 204.855469 336.585938 L 204.894531 336.5625 C 205.476562 336.230469 205.675781 335.488281 205.34375 334.90625 C 205.285156 334.808594 205.21875 334.722656 205.140625 334.644531 L 203.9375 332.566406 C 207.84375 330.097656 211.089844 326.804688 213.5 322.992188 L 215.84375 324.34375 C 216.035156 324.453125 216.242188 324.503906 216.449219 324.503906 C 216.871094 324.503906 217.277344 324.289062 217.503906 323.898438 C 217.839844 323.316406 217.640625 322.574219 217.058594 322.238281 L 214.71875 320.890625 C 216.820312 316.898438 218.058594 312.449219 218.25 307.835938 L 220.972656 307.835938 C 221.644531 307.835938 222.1875 307.292969 222.1875 306.621094 C 222.1875 305.949219 221.644531 305.40625 220.972656 305.40625 Z M 201.707031 331.074219 C 201.699219 331.078125 201.691406 331.082031 201.679688 331.089844 C 201.671875 331.09375 201.660156 331.101562 201.652344 331.109375 C 199.5625 332.3125 197.28125 333.265625 194.84375 333.917969 C 192.398438 334.574219 189.9375 334.886719 187.519531 334.886719 C 177.464844 334.886719 168.074219 329.488281 163.019531 320.8125 C 163.007812 320.792969 163 320.769531 162.988281 320.75 C 162.972656 320.726562 162.960938 320.707031 162.945312 320.683594 C 161.746094 318.601562 160.796875 316.335938 160.144531 313.910156 C 159.515625 311.566406 159.203125 309.210938 159.179688 306.890625 C 159.199219 306.804688 159.210938 306.714844 159.210938 306.621094 C 159.210938 306.527344 159.199219 306.4375 159.179688 306.351562 C 159.285156 293.953125 167.617188 282.613281 180.179688 279.25 C 182.625 278.59375 185.085938 278.28125 187.503906 278.28125 C 200.011719 278.28125 211.492188 286.632812 214.878906 299.261719 C 218.261719 311.875 212.515625 324.820312 201.707031 331.074219 Z M 201.707031 331.074219 " fill-opacity="1" fill-rule="nonzero"/></svg>