<svg xmlns="http://www.w3.org/2000/svg" xmlns:xlink="http://www.w3.org/1999/xlink" width="500" zoomAndPan="magnify" viewBox="0 0 375 374.999991" height="500" preserveAspectRatio="xMidYMid meet" version="1.0"><path fill="#00abe7" d="M 154.535156 301.144531 C 153.625 302.066406 152.757812 303.027344 151.941406 304.03125 C 151.125 305.035156 150.355469 306.074219 149.640625 307.15625 C 148.925781 308.234375 148.261719 309.34375 147.65625 310.488281 C 147.046875 311.632812 146.5 312.800781 146.003906 314 C 145.511719 315.195312 145.078125 316.414062 144.707031 317.65625 C 144.332031 318.894531 144.019531 320.148438 143.769531 321.417969 C 143.515625 322.6875 143.328125 323.96875 143.203125 325.257812 C 143.074219 326.546875 143.011719 327.835938 143.011719 329.132812 C 143.011719 330.425781 143.074219 331.71875 143.203125 333.007812 C 143.328125 334.296875 143.515625 335.574219 143.769531 336.84375 C 144.019531 338.113281 144.332031 339.371094 144.707031 340.609375 C 145.078125 341.847656 145.511719 343.066406 146.003906 344.265625 C 146.5 345.460938 147.046875 346.632812 147.65625 347.777344 C 148.261719 348.917969 148.925781 350.03125 149.640625 351.109375 C 150.355469 352.1875 151.125 353.230469 151.941406 354.234375 C 152.757812 355.238281 153.625 356.199219 154.535156 357.117188 L 156.453125 358.777344 C 158.238281 360.363281 160.152344 361.773438 162.199219 363.011719 C 164.246094 364.246094 166.386719 365.285156 168.621094 366.128906 C 170.855469 366.96875 173.152344 367.601562 175.503906 368.019531 C 177.855469 368.441406 180.226562 368.644531 182.617188 368.628906 C 185.210938 368.625 187.78125 368.375 190.328125 367.871094 C 192.875 367.367188 195.347656 366.621094 197.75 365.632812 C 200.148438 364.648438 202.429688 363.4375 204.59375 362.003906 C 206.757812 360.570312 208.765625 358.941406 210.609375 357.117188 L 371.949219 195.824219 C 372.355469 195.417969 372.722656 194.976562 373.042969 194.5 C 373.363281 194.019531 373.636719 193.515625 373.855469 192.984375 C 374.078125 192.453125 374.246094 191.90625 374.359375 191.34375 C 374.472656 190.777344 374.527344 190.207031 374.527344 189.632812 C 374.527344 189.058594 374.472656 188.488281 374.359375 187.921875 C 374.246094 187.359375 374.078125 186.8125 373.855469 186.28125 C 373.636719 185.75 373.363281 185.246094 373.042969 184.765625 C 372.722656 184.289062 372.355469 183.847656 371.949219 183.441406 L 210.609375 22.148438 C 209.730469 21.269531 208.808594 20.433594 207.851562 19.640625 C 206.890625 18.851562 205.894531 18.105469 204.867188 17.40625 C 203.835938 16.710938 202.777344 16.0625 201.683594 15.464844 C 200.59375 14.867188 199.476562 14.320312 198.335938 13.828125 C 197.191406 13.335938 196.03125 12.894531 194.847656 12.511719 C 193.664062 12.128906 192.464844 11.804688 191.25 11.535156 C 190.035156 11.261719 188.8125 11.050781 187.578125 10.894531 C 186.34375 10.742188 185.101562 10.644531 183.859375 10.605469 C 182.617188 10.570312 181.375 10.589844 180.132812 10.667969 C 178.890625 10.746094 177.65625 10.882812 176.425781 11.078125 C 175.199219 11.273438 173.980469 11.527344 172.777344 11.839844 C 171.570312 12.148438 170.382812 12.515625 169.214844 12.9375 C 168.042969 13.359375 166.894531 13.835938 165.769531 14.363281 C 164.644531 14.894531 163.546875 15.476562 162.476562 16.109375 C 161.40625 16.746094 160.367188 17.425781 159.363281 18.160156 C 158.355469 18.890625 157.386719 19.667969 156.453125 20.488281 L 154.535156 22.148438 C 153.625 23.066406 152.757812 24.027344 151.941406 25.03125 C 151.125 26.035156 150.355469 27.078125 149.640625 28.15625 C 148.925781 29.234375 148.261719 30.347656 147.65625 31.488281 C 147.046875 32.632812 146.5 33.804688 146.003906 35 C 145.511719 36.199219 145.078125 37.417969 144.707031 38.65625 C 144.332031 39.894531 144.019531 41.152344 143.769531 42.421875 C 143.515625 43.691406 143.328125 44.96875 143.203125 46.257812 C 143.074219 47.546875 143.011719 48.839844 143.011719 50.132812 C 143.011719 51.429688 143.074219 52.71875 143.203125 54.007812 C 143.328125 55.296875 143.515625 56.578125 143.769531 57.847656 C 144.019531 59.117188 144.332031 60.371094 144.707031 61.609375 C 145.078125 62.851562 145.511719 64.070312 146.003906 65.265625 C 146.5 66.464844 147.046875 67.632812 147.65625 68.777344 C 148.261719 69.921875 148.925781 71.03125 149.640625 72.109375 C 150.355469 73.191406 151.125 74.230469 151.941406 75.234375 C 152.757812 76.238281 153.625 77.199219 154.535156 78.121094 L 266.25 189.632812 Z M 154.535156 301.144531 " fill-opacity="1" fill-rule="nonzero"/><path fill="#00abe7" d="M 15 301.144531 C 14.089844 302.066406 13.222656 303.027344 12.40625 304.03125 C 11.589844 305.035156 10.820312 306.074219 10.105469 307.15625 C 9.390625 308.234375 8.726562 309.34375 8.121094 310.488281 C 7.515625 311.632812 6.964844 312.800781 6.472656 314 C 5.976562 315.195312 5.542969 316.414062 5.171875 317.65625 C 4.796875 318.894531 4.484375 320.148438 4.234375 321.417969 C 3.980469 322.6875 3.792969 323.96875 3.667969 325.257812 C 3.539062 326.546875 3.476562 327.835938 3.476562 329.132812 C 3.476562 330.425781 3.539062 331.71875 3.667969 333.007812 C 3.792969 334.296875 3.980469 335.574219 4.234375 336.84375 C 4.484375 338.113281 4.796875 339.371094 5.171875 340.609375 C 5.542969 341.847656 5.976562 343.066406 6.472656 344.265625 C 6.964844 345.460938 7.515625 346.632812 8.121094 347.777344 C 8.726562 348.917969 9.390625 350.03125 10.105469 351.109375 C 10.820312 352.1875 11.589844 353.230469 12.40625 354.234375 C 13.222656 355.238281 14.089844 356.199219 15 357.117188 L 16.917969 358.777344 C 18.703125 360.363281 20.621094 361.773438 22.664062 363.011719 C 24.710938 364.246094 26.851562 365.285156 29.085938 366.128906 C 31.324219 366.96875 33.617188 367.601562 35.96875 368.019531 C 38.320312 368.441406 40.691406 368.644531 43.082031 368.628906 C 45.675781 368.625 48.246094 368.375 50.792969 367.871094 C 53.339844 367.367188 55.8125 366.621094 58.214844 365.632812 C 60.613281 364.648438 62.898438 363.4375 65.0625 362.003906 C 67.226562 360.570312 69.230469 358.941406 71.074219 357.117188 L 232.414062 195.824219 C 232.820312 195.417969 233.1875 194.976562 233.507812 194.5 C 233.828125 194.019531 234.101562 193.515625 234.320312 192.984375 C 234.542969 192.453125 234.710938 191.90625 234.824219 191.34375 C 234.9375 190.777344 234.992188 190.207031 234.992188 189.632812 C 234.992188 189.058594 234.9375 188.488281 234.824219 187.921875 C 234.710938 187.359375 234.542969 186.8125 234.320312 186.28125 C 234.101562 185.75 233.828125 185.246094 233.507812 184.765625 C 233.1875 184.289062 232.820312 183.847656 232.414062 183.441406 L 91.308594 42.546875 L 71.074219 22.148438 C 70.195312 21.269531 69.273438 20.433594 68.316406 19.640625 C 67.355469 18.851562 66.359375 18.105469 65.332031 17.40625 C 64.300781 16.710938 63.242188 16.0625 62.148438 15.464844 C 61.058594 14.867188 59.941406 14.320312 58.800781 13.828125 C 57.660156 13.335938 56.496094 12.894531 55.3125 12.511719 C 54.128906 12.128906 52.929688 11.804688 51.714844 11.535156 C 50.5 11.261719 49.277344 11.050781 48.042969 10.894531 C 46.808594 10.742188 45.570312 10.644531 44.324219 10.605469 C 43.082031 10.570312 41.839844 10.589844 40.597656 10.667969 C 39.355469 10.746094 38.121094 10.882812 36.890625 11.078125 C 35.664062 11.273438 34.445312 11.527344 33.242188 11.839844 C 32.039062 12.148438 30.851562 12.515625 29.679688 12.9375 C 28.507812 13.359375 27.359375 13.835938 26.234375 14.363281 C 25.109375 14.894531 24.011719 15.476562 22.941406 16.109375 C 21.871094 16.746094 20.832031 17.425781 19.828125 18.160156 C 18.820312 18.890625 17.851562 19.667969 16.917969 20.488281 L 15 22.148438 C 14.089844 23.066406 13.222656 24.027344 12.40625 25.03125 C 11.589844 26.035156 10.820312 27.078125 10.105469 28.15625 C 9.390625 29.234375 8.726562 30.347656 8.121094 31.488281 C 7.515625 32.632812 6.964844 33.804688 6.472656 35 C 5.976562 36.199219 5.542969 37.417969 5.171875 38.65625 C 4.796875 39.894531 4.484375 41.152344 4.234375 42.421875 C 3.980469 43.691406 3.792969 44.96875 3.667969 46.257812 C 3.539062 47.546875 3.476562 48.839844 3.476562 50.132812 C 3.476562 51.429688 3.539062 52.71875 3.667969 54.007812 C 3.792969 55.296875 3.980469 56.578125 4.234375 57.847656 C 4.484375 59.117188 4.796875 60.371094 5.171875 61.609375 C 5.542969 62.851562 5.976562 64.070312 6.472656 65.265625 C 6.964844 66.464844 7.515625 67.632812 8.121094 68.777344 C 8.726562 69.921875 9.390625 71.03125 10.105469 72.109375 C 10.820312 73.191406 11.589844 74.230469 12.40625 75.234375 C 13.222656 76.238281 14.089844 77.199219 15 78.121094 L 126.714844 189.632812 Z M 15 301.144531 " fill-opacity="1" fill-rule="nonzero"/><path fill="#0074c2" d="M 154.535156 301.144531 C 153.625 302.066406 152.757812 303.027344 151.941406 304.03125 C 151.125 305.035156 150.355469 306.074219 149.640625 307.15625 C 148.925781 308.234375 148.261719 309.34375 147.65625 310.488281 C 147.046875 311.632812 146.5 312.800781 146.003906 314 C 145.511719 315.195312 145.078125 316.414062 144.707031 317.65625 C 144.332031 318.894531 144.019531 320.148438 143.769531 321.417969 C 143.515625 322.6875 143.328125 323.96875 143.203125 325.257812 C 143.074219 326.546875 143.011719 327.835938 143.011719 329.132812 C 143.011719 330.425781 143.074219 331.71875 143.203125 333.007812 C 143.328125 334.296875 143.515625 335.574219 143.769531 336.84375 C 144.019531 338.113281 144.332031 339.371094 144.707031 340.609375 C 145.078125 341.847656 145.511719 343.066406 146.003906 344.265625 C 146.5 345.460938 147.046875 346.632812 147.65625 347.777344 C 148.261719 348.917969 148.925781 350.03125 149.640625 351.109375 C 150.355469 352.1875 151.125 353.230469 151.941406 354.234375 C 152.757812 355.238281 153.625 356.199219 154.535156 357.117188 L 156.453125 358.777344 L 158.285156 357.117188 L 319.621094 195.824219 C 320.03125 195.417969 320.394531 194.976562 320.71875 194.5 C 321.039062 194.019531 321.308594 193.515625 321.53125 192.984375 C 321.753906 192.453125 321.917969 191.90625 322.03125 191.34375 C 322.144531 190.777344 322.203125 190.207031 322.203125 189.632812 C 322.203125 189.058594 322.144531 188.488281 322.03125 187.921875 C 321.917969 187.359375 321.753906 186.8125 321.53125 186.28125 C 321.308594 185.75 321.039062 185.246094 320.71875 184.765625 C 320.394531 184.289062 320.03125 183.847656 319.621094 183.441406 L 158.285156 22.148438 L 156.453125 20.488281 L 154.535156 22.148438 C 153.625 23.066406 152.757812 24.027344 151.941406 25.03125 C 151.125 26.035156 150.355469 27.078125 149.640625 28.15625 C 148.925781 29.234375 148.261719 30.347656 147.65625 31.488281 C 147.046875 32.632812 146.5 33.804688 146.003906 35 C 145.511719 36.199219 145.078125 37.417969 144.707031 38.65625 C 144.332031 39.894531 144.019531 41.152344 143.769531 42.421875 C 143.515625 43.691406 143.328125 44.96875 143.203125 46.257812 C 143.074219 47.546875 143.011719 48.839844 143.011719 50.132812 C 143.011719 51.429688 143.074219 52.71875 143.203125 54.007812 C 143.328125 55.296875 143.515625 56.578125 143.769531 57.847656 C 144.019531 59.117188 144.332031 60.371094 144.707031 61.609375 C 145.078125 62.851562 145.511719 64.070312 146.003906 65.265625 C 146.5 66.464844 147.046875 67.632812 147.65625 68.777344 C 148.261719 69.921875 148.925781 71.03125 149.640625 72.109375 C 150.355469 73.191406 151.125 74.230469 151.941406 75.234375 C 152.757812 76.238281 153.625 77.199219 154.535156 78.121094 L 266.25 189.632812 Z M 154.535156 301.144531 " fill-opacity="1" fill-rule="nonzero"/><path fill="#0074c2" d="M 15 301.144531 C 14.089844 302.066406 13.222656 303.027344 12.40625 304.03125 C 11.589844 305.035156 10.820312 306.074219 10.105469 307.15625 C 9.390625 308.234375 8.726562 309.34375 8.121094 310.488281 C 7.515625 311.632812 6.964844 312.800781 6.472656 314 C 5.976562 315.195312 5.542969 316.414062 5.171875 317.65625 C 4.796875 318.894531 4.484375 320.148438 4.234375 321.417969 C 3.980469 322.6875 3.792969 323.96875 3.667969 325.257812 C 3.539062 326.546875 3.476562 327.835938 3.476562 329.132812 C 3.476562 330.425781 3.539062 331.71875 3.667969 333.007812 C 3.792969 334.296875 3.980469 335.574219 4.234375 336.84375 C 4.484375 338.113281 4.796875 339.371094 5.171875 340.609375 C 5.542969 341.847656 5.976562 343.066406 6.472656 344.265625 C 6.964844 345.460938 7.515625 346.632812 8.121094 347.777344 C 8.726562 348.917969 9.390625 350.03125 10.105469 351.109375 C 10.820312 352.1875 11.589844 353.230469 12.40625 354.234375 C 13.222656 355.238281 14.089844 356.199219 15 357.117188 L 16.917969 358.777344 L 18.75 357.117188 L 180.085938 195.824219 C 180.496094 195.417969 180.859375 194.976562 181.183594 194.5 C 181.503906 194.019531 181.773438 193.515625 181.996094 192.984375 C 182.21875 192.453125 182.382812 191.90625 182.496094 191.34375 C 182.609375 190.777344 182.667969 190.207031 182.667969 189.632812 C 182.667969 189.058594 182.609375 188.488281 182.496094 187.921875 C 182.382812 187.359375 182.21875 186.8125 181.996094 186.28125 C 181.773438 185.75 181.503906 185.246094 181.183594 184.765625 C 180.859375 184.289062 180.496094 183.847656 180.085938 183.441406 L 18.75 22.148438 L 16.917969 20.488281 L 15 22.148438 C 14.089844 23.066406 13.222656 24.027344 12.40625 25.03125 C 11.589844 26.035156 10.820312 27.078125 10.105469 28.15625 C 9.390625 29.234375 8.726562 30.347656 8.121094 31.488281 C 7.515625 32.632812 6.964844 33.804688 6.472656 35 C 5.976562 36.199219 5.542969 37.417969 5.171875 38.65625 C 4.796875 39.894531 4.484375 41.152344 4.234375 42.421875 C 3.980469 43.691406 3.792969 44.96875 3.667969 46.257812 C 3.539062 47.546875 3.476562 48.839844 3.476562 50.132812 C 3.476562 51.429688 3.539062 52.71875 3.667969 54.007812 C 3.792969 55.296875 3.980469 56.578125 4.234375 57.847656 C 4.484375 59.117188 4.796875 60.371094 5.171875 61.609375 C 5.542969 62.851562 5.976562 64.070312 6.472656 65.265625 C 6.964844 66.464844 7.515625 67.632812 8.121094 68.777344 C 8.726562 69.921875 9.390625 71.03125 10.105469 72.109375 C 10.820312 73.191406 11.589844 74.230469 12.40625 75.234375 C 13.222656 76.238281 14.089844 77.199219 15 78.121094 L 126.714844 189.632812 Z M 15 301.144531 " fill-opacity="1" fill-rule="nonzero"/></svg>