<svg xmlns="http://www.w3.org/2000/svg" xmlns:xlink="http://www.w3.org/1999/xlink" width="500" zoomAndPan="magnify" viewBox="0 0 375 374.999991" height="500" preserveAspectRatio="xMidYMid meet" version="1.0"><defs><clipPath id="69d0606182"><path d="M 38.171875 159.101562 L 336.753906 159.101562 L 336.753906 375 L 38.171875 375 Z M 38.171875 159.101562 " clip-rule="nonzero"/></clipPath><clipPath id="9532396dca"><path d="M 124 39 L 251 39 L 251 165.75 L 124 165.75 Z M 124 39 " clip-rule="nonzero"/></clipPath></defs><g clip-path="url(#69d0606182)"><path fill="#000000" d="M 94.15625 359.9375 L 94.15625 268.09375 L 150.042969 268.09375 L 150.042969 359.9375 C 150.042969 360.023438 150.050781 360.105469 150.054688 360.1875 L 94.144531 360.1875 C 94.148438 360.105469 94.15625 360.023438 94.15625 359.9375 Z M 329.167969 159.527344 C 325.035156 159.527344 321.683594 162.878906 321.683594 167.015625 L 321.683594 360.1875 L 164.996094 360.1875 C 165 360.105469 165.011719 360.023438 165.011719 359.9375 L 165.011719 260.605469 C 165.011719 256.472656 161.65625 253.121094 157.527344 253.121094 L 86.671875 253.121094 C 82.539062 253.121094 79.1875 256.472656 79.1875 260.605469 L 79.1875 359.9375 C 79.1875 360.023438 79.199219 360.105469 79.203125 360.1875 L 53.242188 360.1875 L 53.242188 167.015625 C 53.242188 162.878906 49.890625 159.527344 45.757812 159.527344 C 41.621094 159.527344 38.273438 162.878906 38.273438 167.015625 L 38.273438 367.671875 C 38.273438 371.808594 41.621094 375.160156 45.757812 375.160156 L 329.167969 375.160156 C 333.304688 375.160156 336.652344 371.808594 336.652344 367.671875 L 336.652344 167.015625 C 336.652344 162.878906 333.304688 159.527344 329.167969 159.527344 " fill-opacity="1" fill-rule="nonzero"/></g><path fill="#000000" d="M 371.578125 161.433594 L 192.453125 1.207031 C 189.613281 -1.332031 185.3125 -1.332031 182.472656 1.207031 L 3.347656 161.433594 C 0.265625 164.191406 0 168.925781 2.753906 172.007812 C 5.511719 175.089844 10.242188 175.351562 13.324219 172.597656 L 187.460938 16.835938 L 361.601562 172.597656 C 363.03125 173.875 364.8125 174.503906 366.585938 174.503906 C 368.644531 174.503906 370.691406 173.660156 372.167969 172.007812 C 374.925781 168.925781 374.660156 164.191406 371.578125 161.433594 " fill-opacity="1" fill-rule="nonzero"/><path fill="#000000" d="M 284.261719 63.292969 C 288.398438 63.292969 291.746094 59.941406 291.746094 55.808594 L 291.746094 41.230469 L 321.683594 41.230469 L 321.683594 107.117188 C 321.683594 111.253906 325.035156 114.605469 329.167969 114.605469 C 333.304688 114.605469 336.652344 111.253906 336.652344 107.117188 L 336.652344 33.742188 C 336.652344 29.609375 333.304688 26.253906 329.167969 26.253906 L 284.261719 26.253906 C 280.128906 26.253906 276.777344 29.609375 276.777344 33.742188 L 276.777344 55.808594 C 276.777344 59.941406 280.128906 63.292969 284.261719 63.292969 " fill-opacity="1" fill-rule="nonzero"/><path fill="#000000" d="M 244.84375 181.742188 L 244.84375 202.703125 L 223.886719 202.703125 L 223.886719 181.742188 Z M 280.769531 202.703125 L 259.8125 202.703125 L 259.8125 181.742188 L 280.769531 181.742188 Z M 259.8125 238.644531 L 259.8125 217.679688 L 280.769531 217.679688 L 280.769531 238.644531 Z M 223.886719 217.679688 L 244.84375 217.679688 L 244.84375 238.644531 L 223.886719 238.644531 Z M 288.253906 253.621094 C 292.386719 253.621094 295.738281 250.269531 295.738281 246.132812 L 295.738281 174.253906 C 295.738281 170.121094 292.386719 166.765625 288.253906 166.765625 L 216.402344 166.765625 C 212.265625 166.765625 208.917969 170.121094 208.917969 174.253906 L 208.917969 246.132812 C 208.917969 250.269531 212.265625 253.621094 216.402344 253.621094 L 288.253906 253.621094 " fill-opacity="1" fill-rule="nonzero"/><path fill="#000000" d="M 196.09375 88.617188 L 180.238281 97.75 C 179.828125 97.984375 179.578125 98.421875 179.582031 98.894531 L 179.582031 106.558594 C 179.578125 107.019531 179.832031 107.445312 180.238281 107.664062 L 186.878906 111.496094 C 187.265625 111.742188 187.757812 111.742188 188.144531 111.496094 L 215.546875 95.710938 C 220.195312 93.019531 220.195312 85.265625 215.546875 82.574219 L 190.917969 68.386719 C 188.824219 67.125 186.203125 67.125 184.109375 68.386719 L 159.484375 82.578125 C 157.34375 83.777344 156.023438 86.042969 156.039062 88.496094 C 156.039062 98 156.078125 107.460938 156.039062 116.917969 C 156.019531 119.367188 157.332031 121.632812 159.464844 122.835938 L 184.085938 137.066406 C 186.191406 138.292969 188.792969 138.292969 190.898438 137.066406 L 215.546875 122.835938 C 217.675781 121.632812 218.976562 119.363281 218.933594 116.917969 L 218.933594 104.5625 L 189.617188 121.53125 C 188.3125 122.304688 186.683594 122.304688 185.378906 121.53125 L 172.285156 113.941406 C 170.960938 113.199219 170.148438 111.789062 170.167969 110.269531 L 170.167969 95.144531 C 170.160156 93.648438 170.949219 92.265625 172.242188 91.511719 C 176.605469 88.980469 181.007812 86.457031 185.371094 83.925781 C 186.679688 83.15625 188.304688 83.15625 189.613281 83.925781 L 196.113281 87.636719 C 196.382812 87.800781 196.464844 88.152344 196.296875 88.421875 C 196.246094 88.503906 196.175781 88.570312 196.09375 88.617188 Z M 196.09375 88.617188 " fill-opacity="1" fill-rule="nonzero"/><g clip-path="url(#9532396dca)"><path fill="#000000" d="M 248.386719 86.402344 C 244.03125 70.144531 233.605469 56.558594 219.035156 48.140625 C 204.460938 39.726562 187.484375 37.488281 171.234375 41.847656 C 154.980469 46.203125 141.394531 56.628906 132.980469 71.207031 C 124.570312 85.78125 122.332031 102.761719 126.6875 119.019531 C 131.042969 135.277344 141.46875 148.867188 156.039062 157.28125 C 165.746094 162.890625 176.519531 165.753906 187.433594 165.753906 C 192.90625 165.753906 198.414062 165.03125 203.839844 163.578125 C 220.09375 159.222656 233.679688 148.796875 242.09375 134.21875 C 250.503906 119.640625 252.738281 102.660156 248.386719 86.402344 Z M 245.078125 116.074219 L 240.691406 114.898438 C 239.636719 114.613281 238.554688 115.238281 238.269531 116.292969 C 237.988281 117.347656 238.613281 118.433594 239.667969 118.714844 L 244.046875 119.890625 C 242.742188 124.148438 240.949219 128.289062 238.667969 132.242188 C 236.394531 136.1875 233.710938 139.804688 230.683594 143.054688 L 227.820312 140.191406 C 227.734375 140.042969 227.628906 139.898438 227.5 139.769531 C 226.730469 138.996094 225.476562 138.992188 224.703125 139.761719 L 224.652344 139.8125 C 224.28125 140.179688 224.070312 140.683594 224.070312 141.210938 C 224.070312 141.734375 224.277344 142.238281 224.648438 142.613281 L 227.894531 145.859375 C 221.367188 151.984375 213.484375 156.554688 204.71875 159.210938 L 203.539062 154.8125 C 203.402344 154.304688 203.070312 153.871094 202.613281 153.609375 C 202.160156 153.347656 201.617188 153.277344 201.109375 153.417969 L 201.050781 153.433594 C 199.996094 153.714844 199.367188 154.796875 199.648438 155.855469 C 199.695312 156.035156 199.769531 156.207031 199.863281 156.363281 L 200.898438 160.234375 C 191.984375 162.316406 182.878906 162.304688 174.164062 160.265625 L 175.34375 155.875 C 175.625 154.820312 175 153.738281 173.945312 153.453125 C 172.890625 153.171875 171.804688 153.796875 171.523438 154.851562 L 170.351562 159.234375 C 166.097656 157.929688 161.960938 156.136719 158.015625 153.859375 C 154.066406 151.578125 150.445312 148.890625 147.191406 145.855469 L 150.4375 142.613281 C 151.207031 141.839844 151.207031 140.585938 150.4375 139.816406 L 150.382812 139.761719 C 149.609375 138.992188 148.359375 138.992188 147.585938 139.761719 C 147.453125 139.894531 147.34375 140.042969 147.257812 140.199219 L 144.390625 143.066406 C 138.269531 136.535156 133.707031 128.652344 131.050781 119.886719 L 135.417969 118.714844 C 136.472656 118.433594 137.097656 117.347656 136.816406 116.292969 C 136.53125 115.238281 135.449219 114.613281 134.394531 114.898438 L 130.027344 116.066406 C 127.949219 107.148438 127.964844 98.039062 130.003906 89.324219 L 134.542969 90.539062 C 134.710938 90.585938 134.882812 90.605469 135.054688 90.605469 C 135.925781 90.605469 136.726562 90.023438 136.960938 89.140625 C 137.246094 88.085938 136.617188 87.003906 135.5625 86.71875 L 131.035156 85.507812 C 132.339844 81.257812 134.128906 77.125 136.40625 73.183594 C 138.6875 69.230469 141.375 65.605469 144.410156 62.347656 L 147.703125 65.644531 C 148.089844 66.027344 148.59375 66.222656 149.101562 66.222656 C 149.605469 66.222656 150.113281 66.027344 150.496094 65.644531 C 151.269531 64.871094 151.269531 63.621094 150.496094 62.847656 L 147.199219 59.546875 C 153.722656 53.429688 161.597656 48.867188 170.355469 46.210938 L 171.558594 50.695312 C 171.792969 51.578125 172.59375 52.160156 173.464844 52.160156 C 173.632812 52.160156 173.804688 52.140625 173.976562 52.09375 C 175.03125 51.8125 175.65625 50.726562 175.375 49.671875 L 174.171875 45.183594 C 178.636719 44.144531 183.148438 43.628906 187.632812 43.628906 C 192.109375 43.628906 196.558594 44.140625 200.90625 45.160156 L 199.691406 49.695312 C 199.410156 50.75 200.035156 51.835938 201.089844 52.117188 C 201.261719 52.164062 201.433594 52.183594 201.601562 52.183594 C 202.476562 52.183594 203.273438 51.601562 203.511719 50.71875 L 204.722656 46.1875 C 208.976562 47.492188 213.109375 49.285156 217.058594 51.566406 C 221.003906 53.84375 224.621094 56.527344 227.875 59.558594 L 224.585938 62.847656 C 223.816406 63.621094 223.816406 64.871094 224.585938 65.644531 C 224.972656 66.027344 225.480469 66.222656 225.984375 66.222656 C 226.492188 66.222656 226.996094 66.027344 227.382812 65.644531 L 230.675781 62.347656 C 236.796875 68.875 241.359375 76.753906 244.015625 85.515625 L 239.519531 86.71875 C 238.46875 87.003906 237.839844 88.085938 238.125 89.140625 C 238.359375 90.023438 239.160156 90.605469 240.03125 90.605469 C 240.199219 90.605469 240.371094 90.585938 240.542969 90.539062 L 245.039062 89.332031 C 247.121094 98.25 247.113281 107.359375 245.078125 116.074219 Z M 245.078125 116.074219 " fill-opacity="1" fill-rule="nonzero"/></g><path fill="#000000" d="M 241.953125 100.796875 L 237.527344 100.796875 C 237.386719 97.136719 236.84375 93.441406 235.859375 89.761719 C 234.875 86.097656 233.507812 82.636719 231.8125 79.414062 L 235.605469 77.222656 C 236.550781 76.675781 236.875 75.46875 236.328125 74.523438 C 235.78125 73.574219 234.574219 73.253906 233.628906 73.796875 L 229.835938 75.988281 C 225.816406 69.628906 220.445312 64.347656 214.230469 60.425781 L 216.449219 56.582031 C 216.996094 55.636719 216.671875 54.425781 215.726562 53.882812 C 214.78125 53.335938 213.574219 53.660156 213.027344 54.605469 L 210.808594 58.445312 C 204.300781 55.019531 197.035156 53.015625 189.511719 52.710938 L 189.511719 48.339844 C 189.511719 47.246094 188.625 46.363281 187.535156 46.363281 C 186.441406 46.363281 185.558594 47.246094 185.558594 48.339844 L 185.558594 52.710938 C 181.921875 52.851562 178.25 53.398438 174.589844 54.378906 C 170.933594 55.359375 167.480469 56.722656 164.257812 58.417969 L 162.058594 54.605469 C 161.511719 53.660156 160.304688 53.335938 159.359375 53.882812 C 158.414062 54.425781 158.089844 55.636719 158.636719 56.582031 L 160.835938 60.390625 C 154.472656 64.414062 149.191406 69.78125 145.265625 76 L 141.457031 73.796875 C 140.511719 73.25 139.304688 73.574219 138.757812 74.523438 C 138.210938 75.46875 138.535156 76.675781 139.480469 77.222656 L 143.289062 79.421875 C 139.851562 85.953125 137.84375 93.246094 137.546875 100.796875 L 133.117188 100.796875 C 132.027344 100.796875 131.140625 101.679688 131.140625 102.773438 C 131.140625 103.863281 132.027344 104.75 133.117188 104.75 L 137.550781 104.75 C 137.699219 108.367188 138.242188 112.023438 139.214844 115.664062 C 140.199219 119.335938 141.570312 122.800781 143.273438 126.03125 L 139.5 128.207031 C 138.554688 128.753906 138.230469 129.964844 138.777344 130.910156 C 139.144531 131.542969 139.808594 131.898438 140.488281 131.898438 C 140.824219 131.898438 141.164062 131.8125 141.476562 131.632812 L 145.25 129.453125 C 149.273438 135.804688 154.636719 141.089844 160.847656 145.007812 L 158.886719 148.402344 C 158.757812 148.527344 158.644531 148.671875 158.550781 148.835938 C 158.003906 149.785156 158.332031 150.992188 159.277344 151.535156 L 159.347656 151.574219 C 159.65625 151.753906 159.996094 151.835938 160.328125 151.835938 C 161.011719 151.835938 161.675781 151.480469 162.039062 150.847656 L 164.269531 146.984375 C 170.777344 150.40625 178.039062 152.410156 185.558594 152.710938 L 185.558594 157.207031 C 185.558594 158.296875 186.441406 159.183594 187.535156 159.183594 C 188.625 159.183594 189.511719 158.296875 189.511719 157.207031 L 189.511719 152.71875 C 193.148438 152.574219 196.824219 152.027344 200.484375 151.046875 C 204.144531 150.066406 207.601562 148.699219 210.824219 147.003906 L 213.042969 150.847656 C 213.410156 151.480469 214.074219 151.832031 214.761719 151.832031 C 215.09375 151.832031 215.433594 151.75 215.742188 151.570312 L 215.808594 151.535156 C 216.753906 150.992188 217.078125 149.785156 216.53125 148.839844 C 216.441406 148.679688 216.328125 148.535156 216.203125 148.410156 L 214.25 145.027344 C 220.601562 141.007812 225.878906 135.640625 229.800781 129.433594 L 233.609375 131.632812 C 233.921875 131.8125 234.261719 131.898438 234.59375 131.898438 C 235.277344 131.898438 235.941406 131.542969 236.308594 130.910156 C 236.855469 129.964844 236.53125 128.753906 235.585938 128.207031 L 231.777344 126.011719 C 235.199219 119.511719 237.214844 112.261719 237.523438 104.75 L 241.953125 104.75 C 243.042969 104.75 243.929688 103.863281 243.929688 102.773438 C 243.929688 101.679688 243.042969 100.796875 241.953125 100.796875 Z M 210.621094 142.597656 C 210.609375 142.605469 210.59375 142.613281 210.578125 142.621094 C 210.5625 142.628906 210.546875 142.640625 210.53125 142.652344 C 207.132812 144.609375 203.425781 146.164062 199.460938 147.226562 C 195.480469 148.292969 191.484375 148.804688 187.546875 148.804688 C 171.195312 148.800781 155.929688 140.015625 147.707031 125.882812 C 147.691406 125.851562 147.675781 125.816406 147.65625 125.78125 C 147.632812 125.746094 147.609375 125.710938 147.585938 125.675781 C 145.636719 122.285156 144.09375 118.59375 143.035156 114.640625 C 142.011719 110.824219 141.503906 106.992188 141.460938 103.214844 C 141.496094 103.070312 141.515625 102.925781 141.515625 102.773438 C 141.515625 102.621094 141.496094 102.476562 141.464844 102.335938 C 141.636719 82.140625 155.183594 63.671875 175.613281 58.195312 C 179.59375 57.128906 183.589844 56.621094 187.527344 56.621094 C 207.867188 56.621094 226.53125 70.21875 232.039062 90.785156 C 237.542969 111.328125 228.199219 132.410156 210.621094 142.597656 Z M 210.621094 142.597656 " fill-opacity="1" fill-rule="nonzero"/></svg>