<svg xmlns="http://www.w3.org/2000/svg" xmlns:xlink="http://www.w3.org/1999/xlink" width="500" zoomAndPan="magnify" viewBox="0 0 375 374.999991" height="500" preserveAspectRatio="xMidYMid meet" version="1.0"><defs><clipPath id="7aad4e0ea7"><path d="M 79.800781 0 L 302.550781 0 L 302.550781 375 L 79.800781 375 Z M 79.800781 0 " clip-rule="nonzero"/></clipPath><clipPath id="d6bf9445d5"><path d="M 189 107 L 244 107 L 244 168 L 189 168 Z M 189 107 " clip-rule="nonzero"/></clipPath><clipPath id="1eed71b11b"><path d="M 160.675781 81.519531 L 272.421875 82.207031 L 271.746094 191.703125 L 160 191.015625 Z M 160.675781 81.519531 " clip-rule="nonzero"/></clipPath><clipPath id="462a8e44fc"><path d="M 160.675781 81.519531 L 272.421875 82.207031 L 271.746094 191.703125 L 160 191.015625 Z M 160.675781 81.519531 " clip-rule="nonzero"/></clipPath><clipPath id="16becd84a2"><path d="M 160.675781 81.519531 L 272.421875 82.207031 L 271.746094 191.703125 L 160 191.015625 Z M 160.675781 81.519531 " clip-rule="nonzero"/></clipPath><clipPath id="d3a5eda178"><path d="M 162 83 L 271 83 L 271 192 L 162 192 Z M 162 83 " clip-rule="nonzero"/></clipPath><clipPath id="7d45dd9b87"><path d="M 160.675781 81.519531 L 272.421875 82.207031 L 271.746094 191.703125 L 160 191.015625 Z M 160.675781 81.519531 " clip-rule="nonzero"/></clipPath><clipPath id="a198e7b08f"><path d="M 160.675781 81.519531 L 272.421875 82.207031 L 271.746094 191.703125 L 160 191.015625 Z M 160.675781 81.519531 " clip-rule="nonzero"/></clipPath><clipPath id="c09f2fe330"><path d="M 160.675781 81.519531 L 272.421875 82.207031 L 271.746094 191.703125 L 160 191.015625 Z M 160.675781 81.519531 " clip-rule="nonzero"/></clipPath><clipPath id="04ff0e30f4"><path d="M 167 89 L 265 89 L 265 186 L 167 186 Z M 167 89 " clip-rule="nonzero"/></clipPath><clipPath id="da860588de"><path d="M 160.675781 81.519531 L 272.421875 82.207031 L 271.746094 191.703125 L 160 191.015625 Z M 160.675781 81.519531 " clip-rule="nonzero"/></clipPath><clipPath id="5bcd55a91d"><path d="M 160.675781 81.519531 L 272.421875 82.207031 L 271.746094 191.703125 L 160 191.015625 Z M 160.675781 81.519531 " clip-rule="nonzero"/></clipPath><clipPath id="180b874ba0"><path d="M 160.675781 81.519531 L 272.421875 82.207031 L 271.746094 191.703125 L 160 191.015625 Z M 160.675781 81.519531 " clip-rule="nonzero"/></clipPath></defs><path fill="#000000" d="M 250.34375 176.671875 C 260.785156 167.15625 267.386719 153.496094 267.386719 138.261719 C 267.386719 109.539062 244.09375 86.261719 215.359375 86.261719 C 186.625 86.261719 163.335938 109.539062 163.335938 138.261719 C 163.335938 154.433594 170.726562 168.878906 182.3125 178.417969 L 182.3125 161.515625 C 177.660156 154.929688 174.898438 146.917969 174.898438 138.261719 C 174.898438 115.957031 193.046875 97.816406 215.359375 97.816406 C 237.667969 97.816406 255.824219 115.957031 255.824219 138.261719 C 255.824219 145.632812 253.804688 152.535156 250.34375 158.496094 Z M 250.34375 176.671875 " fill-opacity="1" fill-rule="nonzero"/><g clip-path="url(#7aad4e0ea7)"><path fill="#000000" d="M 302.550781 23.4375 C 302.550781 10.492188 291.90625 0 278.789062 0 L 103.554688 0 C 90.4375 0 79.800781 10.492188 79.800781 23.4375 L 79.800781 351.5625 C 79.800781 364.503906 90.4375 375 103.554688 375 L 199.515625 375 C 197.164062 371.585938 195.449219 367.617188 194.636719 363.28125 L 196.363281 345.707031 C 195.613281 347.578125 195.03125 349.535156 194.648438 351.5625 L 161.867188 351.5625 C 158.625 351.5625 156.003906 348.9375 156.003906 345.703125 C 156.003906 342.46875 158.625 339.84375 161.867188 339.84375 L 196.941406 339.84375 L 198.089844 328.125 C 196.605469 324.476562 194.769531 320.585938 192.570312 316.40625 L 91.523438 316.40625 L 91.523438 58.59375 L 290.828125 58.59375 L 290.828125 200.613281 C 294.988281 200.945312 298.933594 202.027344 302.550781 203.714844 Z M 202.898438 35.15625 L 156.316406 35.15625 C 153.398438 35.15625 150.691406 33.164062 150.222656 30.28125 C 149.625 26.609375 152.445312 23.4375 156.003906 23.4375 L 202.585938 23.4375 C 204.863281 25.261719 206.398438 26.488281 208.679688 28.3125 C 209.277344 31.984375 206.457031 35.15625 202.898438 35.15625 Z M 238.070312 35.15625 L 226.347656 35.15625 C 223.109375 35.15625 220.484375 32.53125 220.484375 29.296875 C 220.484375 26.0625 223.109375 23.4375 226.347656 23.4375 L 238.070312 23.4375 C 241.308594 23.4375 243.929688 26.0625 243.929688 29.296875 C 243.929688 32.53125 241.308594 35.15625 238.070312 35.15625 Z M 238.070312 35.15625 " fill-opacity="1" fill-rule="nonzero"/></g><path fill="#000000" d="M 209.132812 352.015625 C 207.757812 352.015625 205.742188 354.25 205.742188 357.753906 C 205.742188 361.269531 207.757812 363.5 209.132812 363.5 L 284.484375 363.5 C 285.875 363.5 287.890625 361.269531 287.890625 357.753906 C 287.890625 354.253906 285.878906 352.019531 284.484375 352.015625 Z M 209.132812 352.015625 " fill-opacity="1" fill-rule="nonzero"/><path fill="#000000" d="M 299.363281 243.382812 C 299.179688 234.511719 302.296875 215.3125 288.054688 215.3125 C 283.804688 215.3125 280.3125 217.953125 276.742188 219.859375 L 274.492188 213.449219 C 272.207031 207 264.210938 204.109375 258.257812 207.753906 L 250.816406 212.285156 L 249.359375 203.839844 C 248.65625 199.726562 245.242188 196.082031 241.117188 195.027344 C 236.125 193.75 231.070312 196.773438 226.59375 198.453125 L 226.582031 139.601562 C 226.136719 133.261719 221.523438 128.6875 215.53125 128.6875 C 209.433594 128.6875 204.46875 133.578125 204.46875 139.601562 L 204.46875 220.226562 C 204.546875 224.105469 203.265625 230.691406 198.078125 230.519531 C 194.359375 230.402344 191.105469 226.257812 189.867188 223.121094 C 186.9375 215.640625 181.777344 206.21875 173.878906 203.757812 C 168.722656 202.15625 160.878906 203.863281 159.210938 209.59375 C 157.988281 213.738281 159.765625 218.125 161.640625 221.808594 C 165.355469 229.140625 169.800781 236.035156 173.246094 243.503906 C 176.804688 251.144531 192.273438 290.523438 198.636719 301.597656 C 204.605469 312.027344 211.515625 325.566406 213.925781 340.4375 L 279.984375 340.511719 C 281.882812 335.308594 285.34375 326.195312 288.011719 321.144531 C 300.554688 297.5625 299.945312 270.015625 299.363281 243.382812 Z M 299.363281 243.382812 " fill-opacity="1" fill-rule="nonzero"/><g clip-path="url(#d6bf9445d5)"><g clip-path="url(#1eed71b11b)"><g clip-path="url(#462a8e44fc)"><g clip-path="url(#16becd84a2)"><path fill="#000000" d="M 223.597656 125.550781 L 209.96875 133.265625 C 209.617188 133.464844 209.402344 133.835938 209.402344 134.238281 L 209.363281 140.78125 C 209.355469 141.175781 209.570312 141.539062 209.917969 141.730469 L 215.582031 145.035156 C 215.914062 145.246094 216.335938 145.25 216.667969 145.042969 L 240.214844 131.707031 C 244.210938 129.4375 244.253906 122.816406 240.285156 120.492188 L 219.269531 108.253906 C 217.484375 107.160156 215.238281 107.148438 213.4375 108.214844 L 192.277344 120.203125 C 190.4375 121.210938 189.296875 123.140625 189.296875 125.234375 C 189.246094 133.351562 189.230469 141.425781 189.148438 149.5 C 189.117188 151.59375 190.230469 153.535156 192.050781 154.570312 L 213.058594 166.851562 C 214.855469 167.910156 217.082031 167.921875 218.890625 166.886719 L 240.074219 154.867188 C 241.902344 153.855469 243.027344 151.921875 243.003906 149.835938 L 243.066406 139.285156 L 217.878906 153.617188 C 216.753906 154.273438 215.359375 154.261719 214.246094 153.59375 L 203.074219 147.046875 C 201.945312 146.40625 201.253906 145.199219 201.277344 143.902344 L 201.359375 130.988281 C 201.359375 129.710938 202.046875 128.53125 203.15625 127.898438 C 206.90625 125.757812 210.6875 123.625 214.441406 121.488281 C 215.5625 120.835938 216.953125 120.84375 218.070312 121.511719 L 223.617188 124.714844 C 223.847656 124.855469 223.914062 125.15625 223.769531 125.382812 C 223.726562 125.453125 223.667969 125.511719 223.597656 125.550781 Z M 223.597656 125.550781 " fill-opacity="1" fill-rule="nonzero"/></g></g></g></g><g clip-path="url(#d3a5eda178)"><g clip-path="url(#7d45dd9b87)"><g clip-path="url(#a198e7b08f)"><g clip-path="url(#c09f2fe330)"><path fill="#000000" d="M 268.386719 123.9375 C 264.742188 110.03125 255.886719 98.375 243.453125 91.113281 C 231.019531 83.851562 216.492188 81.855469 202.550781 85.488281 C 188.613281 89.121094 176.925781 97.949219 169.644531 110.351562 C 162.363281 122.753906 160.359375 137.238281 164.003906 151.140625 C 167.644531 165.046875 176.5 176.703125 188.933594 183.964844 C 197.21875 188.800781 206.425781 191.304688 215.773438 191.363281 C 220.457031 191.390625 225.179688 190.804688 229.835938 189.59375 C 243.777344 185.957031 255.464844 177.128906 262.746094 164.726562 C 270.023438 152.328125 272.027344 137.839844 268.386719 123.9375 Z M 265.394531 149.25 L 261.644531 148.222656 C 260.746094 147.976562 259.8125 148.503906 259.566406 149.402344 C 259.320312 150.304688 259.847656 151.230469 260.75 151.480469 L 264.492188 152.503906 C 263.355469 156.132812 261.796875 159.660156 259.824219 163.023438 C 257.851562 166.375 255.539062 169.449219 252.925781 172.210938 L 250.492188 169.75 C 250.417969 169.621094 250.328125 169.5 250.21875 169.390625 C 249.566406 168.726562 248.492188 168.71875 247.824219 169.371094 L 247.78125 169.410156 C 247.460938 169.722656 247.277344 170.152344 247.273438 170.601562 C 247.273438 171.050781 247.449219 171.480469 247.761719 171.800781 L 250.527344 174.589844 C 244.902344 179.785156 238.128906 183.644531 230.609375 185.871094 L 229.621094 182.105469 C 229.507812 181.671875 229.226562 181.300781 228.835938 181.074219 C 228.449219 180.851562 227.984375 180.789062 227.550781 180.902344 L 227.496094 180.917969 C 226.59375 181.152344 226.050781 182.074219 226.285156 182.976562 C 226.324219 183.132812 226.386719 183.277344 226.464844 183.410156 L 227.332031 186.722656 C 219.6875 188.453125 211.890625 188.394531 204.441406 186.605469 L 205.472656 182.867188 C 205.71875 181.964844 205.1875 181.039062 204.285156 180.792969 C 203.386719 180.542969 202.453125 181.074219 202.207031 181.972656 L 201.179688 185.707031 C 197.542969 184.570312 194.011719 183.019531 190.644531 181.050781 C 187.277344 179.085938 184.1875 176.769531 181.417969 174.164062 L 184.214844 171.410156 C 184.878906 170.753906 184.886719 169.683594 184.226562 169.023438 L 184.183594 168.976562 C 183.523438 168.3125 182.453125 168.308594 181.789062 168.960938 C 181.675781 169.074219 181.578125 169.199219 181.503906 169.332031 L 179.035156 171.765625 C 173.828125 166.160156 169.960938 159.402344 167.730469 151.90625 L 171.480469 150.929688 C 172.382812 150.691406 172.925781 149.769531 172.6875 148.867188 C 172.453125 147.964844 171.527344 147.425781 170.621094 147.660156 L 166.878906 148.636719 C 165.144531 141.011719 165.207031 133.234375 166.996094 125.804688 L 170.875 126.867188 C 171.023438 126.90625 171.171875 126.925781 171.316406 126.925781 C 172.0625 126.933594 172.75 126.4375 172.957031 125.6875 C 173.203125 124.785156 172.675781 123.859375 171.773438 123.609375 L 167.902344 122.550781 C 169.039062 118.929688 170.59375 115.414062 172.5625 112.058594 C 174.539062 108.695312 176.859375 105.617188 179.476562 102.851562 L 182.277344 105.679688 C 182.605469 106.011719 183.039062 106.179688 183.472656 106.183594 C 183.90625 106.183594 184.339844 106.023438 184.671875 105.695312 C 185.335938 105.039062 185.34375 103.972656 184.6875 103.308594 L 181.878906 100.472656 C 187.5 95.285156 194.265625 91.433594 201.777344 89.210938 L 202.785156 93.042969 C 202.980469 93.800781 203.664062 94.300781 204.410156 94.304688 C 204.554688 94.304688 204.703125 94.289062 204.847656 94.25 C 205.753906 94.015625 206.296875 93.09375 206.058594 92.191406 L 205.054688 88.351562 C 208.882812 87.488281 212.746094 87.070312 216.585938 87.09375 C 220.417969 87.117188 224.226562 87.582031 227.945312 88.472656 L 226.882812 92.339844 C 226.632812 93.238281 227.164062 94.167969 228.066406 94.414062 C 228.210938 94.453125 228.359375 94.472656 228.503906 94.472656 C 229.25 94.480469 229.9375 93.984375 230.144531 93.234375 L 231.210938 89.371094 C 234.84375 90.507812 238.375 92.058594 241.742188 94.027344 C 245.109375 95.992188 248.191406 98.304688 250.960938 100.910156 L 248.128906 103.699219 C 247.464844 104.355469 247.460938 105.421875 248.117188 106.085938 C 248.445312 106.417969 248.875 106.585938 249.308594 106.585938 C 249.742188 106.589844 250.175781 106.429688 250.507812 106.101562 L 253.347656 103.304688 C 258.550781 108.910156 262.417969 115.660156 264.648438 123.15625 L 260.792969 124.160156 C 259.886719 124.394531 259.347656 125.316406 259.582031 126.21875 C 259.78125 126.976562 260.460938 127.476562 261.210938 127.480469 C 261.355469 127.484375 261.5 127.464844 261.648438 127.425781 L 265.503906 126.421875 C 267.242188 134.046875 267.183594 141.820312 265.394531 149.25 Z M 265.394531 149.25 " fill-opacity="1" fill-rule="nonzero"/></g></g></g></g><g clip-path="url(#04ff0e30f4)"><g clip-path="url(#da860588de)"><g clip-path="url(#5bcd55a91d)"><g clip-path="url(#180b874ba0)"><path fill="#000000" d="M 262.800781 136.191406 L 259.011719 136.167969 C 258.910156 133.042969 258.464844 129.886719 257.640625 126.738281 C 256.820312 123.601562 255.664062 120.644531 254.230469 117.878906 L 257.488281 116.03125 C 258.300781 115.570312 258.585938 114.539062 258.125 113.726562 C 257.660156 112.917969 256.628906 112.636719 255.816406 113.097656 L 252.554688 114.945312 C 249.144531 109.496094 244.578125 104.957031 239.277344 101.574219 L 241.195312 98.304688 C 241.667969 97.503906 241.398438 96.46875 240.589844 95.996094 C 239.785156 95.527344 238.746094 95.796875 238.273438 96.601562 L 236.355469 99.871094 C 230.800781 96.910156 224.589844 95.15625 218.148438 94.859375 L 218.171875 91.125 C 218.175781 90.195312 217.421875 89.433594 216.488281 89.429688 C 215.554688 89.421875 214.792969 90.171875 214.785156 91.105469 L 214.761719 94.835938 C 211.648438 94.941406 208.5 95.386719 205.359375 96.203125 C 202.222656 97.019531 199.261719 98.167969 196.492188 99.597656 L 194.628906 96.332031 C 194.167969 95.519531 193.132812 95.238281 192.320312 95.699219 C 191.507812 96.160156 191.226562 97.191406 191.6875 98 L 193.550781 101.265625 C 188.082031 104.664062 183.53125 109.222656 180.136719 114.507812 L 176.886719 112.609375 C 176.082031 112.136719 175.042969 112.410156 174.570312 113.214844 C 174.097656 114.015625 174.371094 115.050781 175.175781 115.523438 L 178.425781 117.421875 C 175.449219 122.976562 173.691406 129.195312 173.398438 135.640625 L 169.601562 135.617188 C 168.667969 135.609375 167.90625 136.359375 167.902344 137.292969 C 167.894531 138.226562 168.648438 138.984375 169.582031 138.992188 L 173.378906 139.015625 C 173.484375 142.105469 173.933594 145.226562 174.746094 148.34375 C 175.570312 151.480469 176.726562 154.449219 178.167969 157.214844 L 174.925781 159.054688 C 174.113281 159.515625 173.828125 160.546875 174.292969 161.355469 C 174.601562 161.898438 175.167969 162.207031 175.753906 162.210938 C 176.039062 162.210938 176.332031 162.140625 176.597656 161.988281 L 179.84375 160.148438 C 183.253906 165.59375 187.820312 170.128906 193.117188 173.507812 L 191.421875 176.398438 C 191.308594 176.503906 191.210938 176.628906 191.128906 176.769531 C 190.65625 177.574219 190.929688 178.605469 191.738281 179.074219 L 191.796875 179.109375 C 192.0625 179.261719 192.351562 179.335938 192.636719 179.335938 C 193.21875 179.339844 193.789062 179.042969 194.105469 178.503906 L 196.039062 175.214844 C 201.589844 178.171875 207.796875 179.921875 214.234375 180.21875 L 214.210938 184.054688 C 214.207031 184.988281 214.960938 185.746094 215.894531 185.753906 C 216.828125 185.757812 217.589844 185.007812 217.597656 184.074219 L 217.621094 180.242188 C 220.734375 180.140625 223.886719 179.695312 227.027344 178.875 C 230.167969 178.058594 233.132812 176.90625 235.902344 175.476562 L 237.78125 178.773438 C 238.09375 179.3125 238.660156 179.617188 239.246094 179.621094 C 239.53125 179.625 239.824219 179.554688 240.089844 179.40625 L 240.144531 179.375 C 240.957031 178.914062 241.242188 177.886719 240.78125 177.074219 C 240.703125 176.9375 240.609375 176.816406 240.5 176.707031 L 238.84375 173.808594 C 244.308594 170.410156 248.851562 165.855469 252.242188 160.578125 L 255.492188 162.476562 C 255.757812 162.628906 256.050781 162.703125 256.335938 162.707031 C 256.921875 162.710938 257.492188 162.410156 257.808594 161.871094 C 258.28125 161.066406 258.011719 160.03125 257.203125 159.5625 L 253.953125 157.664062 C 256.917969 152.136719 258.683594 145.953125 258.988281 139.542969 L 262.78125 139.566406 C 263.714844 139.570312 264.476562 138.820312 264.484375 137.890625 C 264.488281 136.957031 263.734375 136.195312 262.800781 136.191406 Z M 235.753906 171.714844 C 235.738281 171.722656 235.726562 171.726562 235.714844 171.734375 C 235.699219 171.742188 235.6875 171.75 235.671875 171.761719 C 232.753906 173.414062 229.570312 174.722656 226.171875 175.609375 C 222.757812 176.5 219.332031 176.914062 215.960938 176.890625 C 201.957031 176.804688 188.933594 169.21875 181.964844 157.113281 C 181.953125 157.082031 181.9375 157.054688 181.921875 157.023438 C 181.902344 156.992188 181.882812 156.964844 181.863281 156.933594 C 180.210938 154.027344 178.90625 150.867188 178.023438 147.488281 C 177.167969 144.226562 176.75 140.953125 176.738281 137.726562 C 176.765625 137.605469 176.78125 137.476562 176.78125 137.347656 C 176.785156 137.21875 176.769531 137.09375 176.742188 136.972656 C 176.996094 119.730469 188.695312 104.035156 206.21875 99.46875 C 209.628906 98.582031 213.054688 98.167969 216.425781 98.1875 C 233.84375 98.296875 249.757812 110.003906 254.363281 127.589844 C 258.96875 145.160156 250.859375 163.109375 235.753906 171.714844 Z M 235.753906 171.714844 " fill-opacity="1" fill-rule="nonzero"/></g></g></g></g></svg>