<svg xmlns="http://www.w3.org/2000/svg" xmlns:xlink="http://www.w3.org/1999/xlink" width="500" zoomAndPan="magnify" viewBox="0 0 375 374.999991" height="500" preserveAspectRatio="xMidYMid meet" version="1.0"><defs><clipPath id="1914a68276"><path d="M 111 113 L 263 113 L 263 263.941406 L 111 263.941406 Z M 111 113 " clip-rule="nonzero"/></clipPath></defs><path fill="#000000" d="M 375.039062 186.996094 C 375.039062 152.957031 348.566406 125.222656 314.949219 122.703125 C 301.503906 96.648438 279.652344 75.21875 252.757812 62.613281 C 251.078125 27.3125 220.820312 0 185.523438 1.679688 C 153.167969 3.363281 127.535156 28.574219 124.59375 60.511719 C 97.699219 74.378906 75.847656 96.230469 62.402344 123.121094 C 27.105469 125.222656 0.210938 155.898438 2.730469 191.195312 C 4.832031 223.554688 30.464844 249.1875 62.402344 251.285156 C 76.269531 278.179688 97.699219 299.609375 124.59375 313.476562 C 127.535156 348.777344 158.628906 375.25 193.929688 372.308594 C 225.445312 369.785156 250.234375 344.992188 252.757812 313.476562 C 279.652344 300.03125 301.503906 278.179688 314.949219 251.285156 C 348.566406 248.765625 375.039062 221.03125 375.039062 186.996094 Z M 166.613281 81.519531 C 166.613281 78.578125 169.136719 76.480469 171.65625 76.480469 C 174.179688 76.480469 176.699219 79 176.699219 81.519531 L 176.699219 85.304688 C 176.699219 89.085938 179.640625 92.027344 183.421875 92.027344 L 193.085938 92.027344 C 196.871094 92.027344 199.8125 89.085938 199.8125 85.304688 L 199.8125 76.898438 C 199.8125 74.796875 198.550781 73.117188 196.449219 72.277344 L 176.277344 68.914062 C 169.976562 66.8125 165.773438 60.929688 165.773438 54.628906 L 165.773438 46.222656 C 165.773438 36.558594 173.757812 28.996094 183.003906 28.996094 L 184.261719 28.996094 L 184.261719 25.632812 C 184.261719 22.691406 186.785156 20.589844 189.304688 20.589844 C 191.828125 20.589844 194.347656 23.113281 194.347656 25.632812 L 194.347656 28.996094 C 203.59375 29.414062 210.316406 36.980469 210.316406 46.222656 L 210.316406 50.003906 C 210.316406 52.945312 207.792969 55.046875 205.273438 55.046875 C 202.753906 55.046875 200.230469 52.527344 200.230469 50.003906 L 200.230469 46.222656 C 200.230469 42.441406 197.289062 39.5 193.507812 39.5 L 183.84375 39.5 C 180.0625 39.5 177.121094 42.441406 177.121094 46.222656 L 177.121094 54.628906 C 177.121094 56.308594 178.378906 57.988281 180.0625 58.828125 C 180.0625 58.828125 200.230469 62.191406 200.652344 62.613281 C 206.953125 64.710938 210.738281 70.59375 210.738281 76.898438 L 210.738281 85.304688 C 210.738281 94.546875 203.59375 101.691406 194.769531 102.53125 L 194.769531 106.734375 C 194.769531 109.675781 192.246094 111.777344 189.726562 111.777344 C 187.203125 111.777344 184.261719 109.675781 184.261719 106.734375 L 184.261719 102.53125 L 183.84375 102.53125 C 174.179688 102.53125 166.613281 94.96875 166.613281 85.304688 Z M 41.8125 201.28125 L 33.828125 201.28125 C 30.886719 201.28125 28.785156 198.761719 28.785156 196.238281 C 28.785156 193.71875 31.304688 191.195312 33.828125 191.195312 L 39.289062 191.195312 C 38.871094 188.675781 38.871094 186.152344 39.289062 184.054688 L 33.828125 184.054688 C 30.886719 184.054688 28.785156 181.53125 28.785156 179.011719 C 28.785156 176.488281 31.304688 173.96875 33.828125 173.96875 L 41.8125 173.96875 C 46.855469 160.101562 59.878906 150.855469 75.007812 150.855469 C 80.46875 150.855469 85.933594 152.117188 90.554688 154.636719 C 93.078125 155.898438 94.335938 159.261719 93.078125 161.78125 C 91.816406 164.304688 88.453125 165.5625 85.933594 164.304688 C 82.570312 162.621094 78.789062 161.78125 75.007812 161.78125 C 66.183594 161.78125 57.777344 166.824219 53.578125 174.386719 L 82.570312 174.386719 C 85.511719 174.386719 87.613281 176.910156 87.613281 179.429688 C 87.613281 181.953125 85.09375 184.472656 82.570312 184.472656 L 50.214844 184.472656 C 49.796875 186.996094 49.796875 189.515625 50.214844 191.617188 L 82.992188 191.617188 C 85.933594 191.617188 88.035156 194.136719 88.035156 196.660156 C 88.035156 199.179688 85.511719 201.28125 82.570312 201.28125 L 53.578125 201.28125 C 57.777344 209.265625 66.183594 213.886719 75.007812 213.886719 C 78.789062 213.886719 82.570312 213.046875 85.511719 211.367188 C 88.035156 210.105469 91.394531 211.367188 92.65625 213.886719 C 93.917969 216.410156 92.65625 219.769531 90.136719 221.03125 C 85.511719 223.554688 80.050781 224.8125 74.585938 224.8125 C 60.300781 223.972656 47.273438 215.148438 41.8125 201.28125 Z M 206.953125 305.914062 C 209.894531 305.914062 211.996094 308.4375 211.996094 310.957031 C 211.996094 313.476562 209.476562 316 206.953125 316 L 193.929688 316 L 193.929688 325.664062 L 206.953125 325.664062 C 209.894531 325.664062 211.996094 328.1875 211.996094 330.707031 C 211.996094 333.226562 209.476562 335.75 206.953125 335.75 L 193.929688 335.75 L 193.929688 341.632812 C 193.929688 344.574219 191.40625 346.675781 188.886719 346.675781 C 186.363281 346.675781 183.84375 344.152344 183.84375 341.632812 L 183.84375 335.75 L 170.816406 335.75 C 167.875 335.75 165.773438 333.226562 165.773438 330.707031 C 165.773438 328.1875 168.296875 325.664062 170.816406 325.664062 L 183.84375 325.664062 L 183.84375 316 L 170.816406 316 C 167.875 316 165.773438 313.476562 165.773438 310.957031 C 165.773438 308.4375 168.296875 305.914062 170.816406 305.914062 L 180.0625 305.914062 L 165.351562 280.703125 C 164.09375 278.179688 164.933594 274.820312 167.453125 273.558594 C 169.976562 272.296875 173.335938 273.136719 174.597656 275.660156 L 188.464844 300.03125 L 202.332031 275.660156 C 204.011719 273.136719 207.375 272.71875 209.476562 273.976562 C 211.578125 275.238281 212.417969 278.179688 211.15625 280.703125 L 196.449219 305.914062 Z M 252.757812 301.710938 C 248.976562 266.414062 217.460938 240.78125 182.160156 244.5625 C 151.90625 247.925781 127.953125 271.457031 125.011719 301.710938 C 104.003906 289.945312 86.355469 272.296875 74.585938 251.285156 C 109.886719 247.085938 135.097656 215.148438 130.894531 179.851562 C 127.535156 150.4375 104.003906 126.902344 74.585938 123.542969 C 86.355469 102.53125 104.003906 84.882812 125.011719 73.117188 C 128.375 108.414062 159.890625 134.046875 195.1875 130.6875 C 225.023438 127.746094 248.554688 104.632812 252.335938 74.796875 C 273.769531 85.722656 291.417969 102.53125 303.183594 123.121094 C 267.886719 127.324219 242.671875 159.261719 246.875 194.558594 C 250.234375 223.972656 273.769531 247.503906 303.183594 250.867188 C 291.417969 272.296875 273.769531 289.527344 252.757812 301.710938 Z M 328.394531 224.8125 L 298.140625 224.8125 C 295.199219 224.8125 292.675781 222.292969 292.675781 219.351562 C 292.675781 218.511719 293.097656 217.25 293.519531 216.410156 C 298.140625 209.6875 301.503906 201.703125 303.183594 193.71875 L 290.578125 193.71875 C 287.636719 193.71875 285.535156 191.195312 285.535156 188.675781 C 285.535156 186.152344 288.054688 183.632812 290.578125 183.632812 L 297.71875 183.632812 C 294.777344 179.851562 293.097656 175.226562 292.675781 170.1875 C 292.257812 163.882812 294.359375 157.578125 299.402344 153.378906 C 308.644531 145.394531 323.351562 147.496094 325.035156 147.496094 C 327.976562 148.335938 329.65625 150.855469 328.816406 153.796875 C 328.394531 156.320312 325.875 158 323.351562 157.578125 C 319.992188 157.160156 310.746094 156.738281 306.542969 160.941406 C 304.445312 163.042969 303.183594 166.402344 303.601562 169.765625 C 304.445312 175.648438 310.746094 183.210938 310.746094 183.210938 L 325.453125 183.210938 C 328.394531 183.210938 330.496094 185.734375 330.496094 188.253906 C 330.496094 190.777344 327.976562 193.296875 325.453125 193.296875 L 313.269531 193.296875 C 312.425781 200.441406 310.328125 207.164062 306.542969 213.46875 L 327.976562 213.46875 C 330.917969 213.46875 333.019531 215.988281 333.019531 218.511719 C 333.019531 221.03125 331.335938 224.8125 328.394531 224.8125 Z M 328.394531 224.8125 " fill-opacity="1" fill-rule="nonzero"/><path fill="#000000" d="M 197.351562 171.71875 L 178.414062 182.636719 C 177.925781 182.917969 177.628906 183.441406 177.632812 184.007812 L 177.632812 193.167969 C 177.628906 193.722656 177.929688 194.230469 178.414062 194.492188 L 186.347656 199.074219 C 186.808594 199.367188 187.394531 199.367188 187.855469 199.074219 L 220.582031 180.199219 C 226.136719 176.980469 226.136719 167.710938 220.582031 164.492188 L 191.171875 147.53125 C 188.671875 146.019531 185.539062 146.019531 183.039062 147.53125 L 153.632812 164.5 C 151.078125 165.929688 149.5 168.640625 149.519531 171.574219 C 149.519531 182.9375 149.566406 194.246094 149.519531 205.554688 C 149.496094 208.484375 151.0625 211.195312 153.609375 212.628906 L 183.015625 229.644531 C 185.527344 231.109375 188.632812 231.109375 191.148438 229.644531 L 220.582031 212.628906 C 223.125 211.195312 224.675781 208.476562 224.625 205.554688 L 224.625 190.785156 L 189.617188 211.070312 C 188.058594 211.996094 186.117188 211.996094 184.554688 211.070312 L 168.921875 201.996094 C 167.339844 201.109375 166.367188 199.425781 166.390625 197.605469 L 166.390625 179.523438 C 166.382812 177.734375 167.324219 176.078125 168.867188 175.179688 C 174.082031 172.152344 179.335938 169.132812 184.546875 166.105469 C 186.113281 165.1875 188.050781 165.1875 189.613281 166.105469 L 197.375 170.546875 C 197.695312 170.742188 197.792969 171.164062 197.59375 171.484375 C 197.535156 171.582031 197.449219 171.660156 197.351562 171.71875 Z M 197.351562 171.71875 " fill-opacity="1" fill-rule="nonzero"/><g clip-path="url(#1914a68276)"><path fill="#000000" d="M 259.796875 169.070312 C 254.597656 149.632812 242.148438 133.386719 224.746094 123.324219 C 207.34375 113.261719 187.070312 110.589844 167.664062 115.796875 C 148.253906 121.003906 132.03125 133.472656 121.984375 150.898438 C 111.9375 168.328125 109.269531 188.632812 114.46875 208.070312 C 119.667969 227.507812 132.117188 243.753906 149.519531 253.816406 C 161.109375 260.519531 173.972656 263.945312 187.011719 263.945312 C 193.542969 263.945312 200.121094 263.082031 206.601562 261.34375 C 226.011719 256.136719 242.234375 243.667969 252.28125 226.242188 C 262.328125 208.8125 264.996094 188.507812 259.796875 169.070312 Z M 255.847656 204.542969 L 250.609375 203.140625 C 249.347656 202.800781 248.054688 203.550781 247.71875 204.808594 C 247.378906 206.070312 248.128906 207.367188 249.386719 207.707031 L 254.613281 209.109375 C 253.058594 214.199219 250.917969 219.152344 248.195312 223.878906 C 245.476562 228.59375 242.273438 232.917969 238.65625 236.804688 L 235.238281 233.382812 C 235.136719 233.203125 235.007812 233.03125 234.855469 232.878906 C 233.9375 231.953125 232.441406 231.949219 231.515625 232.871094 L 231.457031 232.925781 C 231.011719 233.371094 230.761719 233.972656 230.761719 234.601562 C 230.757812 235.226562 231.007812 235.832031 231.453125 236.277344 L 235.328125 240.15625 C 227.53125 247.484375 218.117188 252.945312 207.648438 256.125 L 206.242188 250.863281 C 206.082031 250.257812 205.683594 249.738281 205.140625 249.425781 C 204.59375 249.113281 203.949219 249.03125 203.34375 249.195312 L 203.269531 249.214844 C 202.007812 249.550781 201.261719 250.847656 201.59375 252.109375 C 201.652344 252.328125 201.742188 252.53125 201.851562 252.71875 L 203.089844 257.347656 C 192.441406 259.835938 181.570312 259.820312 171.164062 257.382812 L 172.570312 252.136719 C 172.90625 250.875 172.160156 249.578125 170.902344 249.242188 C 169.640625 248.902344 168.347656 249.652344 168.011719 250.910156 L 166.609375 256.148438 C 161.53125 254.59375 156.59375 252.449219 151.878906 249.722656 C 147.164062 246.996094 142.839844 243.785156 138.953125 240.15625 L 142.828125 236.277344 C 143.75 235.351562 143.75 233.855469 142.828125 232.933594 L 142.761719 232.871094 C 141.839844 231.945312 140.347656 231.945312 139.425781 232.871094 C 139.265625 233.027344 139.132812 233.207031 139.03125 233.394531 L 135.605469 236.820312 C 128.296875 229.011719 122.847656 219.585938 119.675781 209.105469 L 124.890625 207.707031 C 126.152344 207.367188 126.898438 206.070312 126.5625 204.808594 C 126.222656 203.550781 124.929688 202.800781 123.671875 203.140625 L 118.457031 204.539062 C 115.972656 193.871094 115.992188 182.980469 118.425781 172.5625 L 123.847656 174.015625 C 124.050781 174.070312 124.257812 174.097656 124.457031 174.097656 C 125.5 174.097656 126.453125 173.402344 126.738281 172.34375 C 127.074219 171.082031 126.328125 169.789062 125.066406 169.449219 L 119.660156 168 C 121.214844 162.917969 123.355469 157.980469 126.070312 153.261719 C 128.796875 148.539062 132.007812 144.207031 135.632812 140.3125 L 139.5625 144.25 C 140.023438 144.710938 140.628906 144.941406 141.230469 144.941406 C 141.835938 144.941406 142.441406 144.710938 142.902344 144.25 C 143.824219 143.324219 143.824219 141.828125 142.902344 140.90625 L 138.960938 136.960938 C 146.753906 129.648438 156.15625 124.191406 166.617188 121.015625 L 168.050781 126.378906 C 168.332031 127.433594 169.285156 128.128906 170.328125 128.128906 C 170.53125 128.128906 170.734375 128.101562 170.941406 128.046875 C 172.199219 127.710938 172.945312 126.414062 172.609375 125.152344 L 171.171875 119.789062 C 176.503906 118.542969 181.890625 117.925781 187.246094 117.925781 C 192.589844 117.925781 197.902344 118.539062 203.101562 119.757812 L 201.648438 125.179688 C 201.3125 126.441406 202.058594 127.738281 203.316406 128.078125 C 203.523438 128.132812 203.726562 128.15625 203.929688 128.15625 C 204.972656 128.15625 205.925781 127.460938 206.207031 126.40625 L 207.65625 120.988281 C 212.734375 122.546875 217.671875 124.691406 222.386719 127.417969 C 227.097656 130.140625 231.417969 133.351562 235.304688 136.976562 L 231.378906 140.90625 C 230.457031 141.828125 230.457031 143.324219 231.378906 144.25 C 231.839844 144.710938 232.441406 144.941406 233.046875 144.941406 C 233.652344 144.941406 234.253906 144.710938 234.714844 144.25 L 238.648438 140.308594 C 245.957031 148.113281 251.40625 157.53125 254.582031 168.007812 L 249.210938 169.449219 C 247.953125 169.789062 247.207031 171.082031 247.542969 172.34375 C 247.824219 173.402344 248.777344 174.097656 249.820312 174.097656 C 250.023438 174.097656 250.230469 174.070312 250.433594 174.015625 L 255.804688 172.574219 C 258.289062 183.238281 258.277344 194.125 255.847656 204.542969 Z M 255.847656 204.542969 " fill-opacity="1" fill-rule="nonzero"/></g><path fill="#000000" d="M 252.113281 186.277344 L 246.832031 186.277344 C 246.664062 181.90625 246.015625 177.488281 244.835938 173.085938 C 243.664062 168.703125 242.03125 164.566406 240.003906 160.710938 L 244.535156 158.09375 C 245.664062 157.441406 246.050781 155.996094 245.398438 154.863281 C 244.746094 153.734375 243.304688 153.347656 242.175781 154 L 237.644531 156.617188 C 232.84375 149.011719 226.433594 142.699219 219.011719 138.007812 L 221.660156 133.414062 C 222.3125 132.285156 221.925781 130.839844 220.796875 130.1875 C 219.667969 129.53125 218.222656 129.921875 217.574219 131.050781 L 214.921875 135.644531 C 207.152344 131.546875 198.476562 129.148438 189.492188 128.785156 L 189.492188 123.558594 C 189.492188 122.253906 188.433594 121.195312 187.128906 121.195312 C 185.828125 121.195312 184.769531 122.253906 184.769531 123.558594 L 184.769531 128.785156 C 180.429688 128.957031 176.039062 129.605469 171.671875 130.78125 C 167.304688 131.953125 163.179688 133.585938 159.335938 135.609375 L 156.707031 131.050781 C 156.054688 129.921875 154.613281 129.535156 153.484375 130.1875 C 152.355469 130.839844 151.96875 132.285156 152.617188 133.414062 L 155.246094 137.96875 C 147.648438 142.777344 141.339844 149.199219 136.65625 156.628906 L 132.105469 154 C 130.976562 153.347656 129.53125 153.734375 128.878906 154.863281 C 128.230469 155.996094 128.617188 157.441406 129.746094 158.09375 L 134.292969 160.722656 C 130.1875 168.53125 127.789062 177.25 127.4375 186.277344 L 122.144531 186.277344 C 120.84375 186.277344 119.785156 187.335938 119.785156 188.640625 C 119.785156 189.949219 120.84375 191.007812 122.144531 191.007812 L 127.4375 191.007812 C 127.617188 195.332031 128.265625 199.703125 129.429688 204.054688 C 130.601562 208.445312 132.242188 212.589844 134.273438 216.449219 L 129.769531 219.054688 C 128.640625 219.707031 128.253906 221.152344 128.902344 222.285156 C 129.339844 223.042969 130.132812 223.464844 130.949219 223.464844 C 131.351562 223.464844 131.757812 223.363281 132.128906 223.148438 L 136.636719 220.542969 C 141.4375 228.140625 147.84375 234.453125 155.261719 239.140625 L 152.921875 243.199219 C 152.765625 243.347656 152.628906 243.523438 152.515625 243.71875 C 151.867188 244.851562 152.257812 246.296875 153.386719 246.945312 L 153.46875 246.992188 C 153.839844 247.207031 154.242188 247.304688 154.640625 247.304688 C 155.453125 247.304688 156.25 246.882812 156.683594 246.125 L 159.347656 241.503906 C 167.117188 245.597656 175.789062 247.992188 184.769531 248.351562 L 184.769531 253.726562 C 184.769531 255.03125 185.828125 256.089844 187.128906 256.089844 C 188.433594 256.089844 189.492188 255.03125 189.492188 253.726562 L 189.492188 248.359375 C 193.832031 248.1875 198.222656 247.535156 202.59375 246.363281 C 206.96875 245.1875 211.09375 243.550781 214.945312 241.527344 L 217.59375 246.125 C 218.03125 246.878906 218.824219 247.300781 219.640625 247.300781 C 220.042969 247.300781 220.445312 247.203125 220.816406 246.988281 L 220.890625 246.945312 C 222.023438 246.296875 222.410156 244.855469 221.757812 243.722656 C 221.648438 243.53125 221.515625 243.359375 221.363281 243.210938 L 219.03125 239.164062 C 226.621094 234.359375 232.921875 227.941406 237.601562 220.519531 L 242.152344 223.148438 C 242.523438 223.363281 242.929688 223.464844 243.328125 223.464844 C 244.144531 223.464844 244.9375 223.042969 245.375 222.285156 C 246.027344 221.152344 245.640625 219.707031 244.511719 219.054688 L 239.964844 216.425781 C 244.050781 208.65625 246.457031 199.988281 246.828125 191.007812 L 252.113281 191.007812 C 253.417969 191.007812 254.476562 189.949219 254.476562 188.640625 C 254.476562 187.335938 253.417969 186.277344 252.113281 186.277344 Z M 214.699219 236.257812 C 214.683594 236.269531 214.664062 236.277344 214.648438 236.285156 C 214.628906 236.296875 214.609375 236.3125 214.589844 236.324219 C 210.53125 238.664062 206.109375 240.523438 201.371094 241.796875 C 196.621094 243.070312 191.847656 243.679688 187.144531 243.679688 C 167.617188 243.679688 149.386719 233.171875 139.570312 216.277344 C 139.550781 216.234375 139.53125 216.191406 139.507812 216.152344 C 139.480469 216.109375 139.453125 216.066406 139.425781 216.027344 C 137.097656 211.972656 135.253906 207.558594 133.988281 202.832031 C 132.769531 198.273438 132.160156 193.6875 132.109375 189.171875 C 132.148438 189 132.171875 188.824219 132.171875 188.640625 C 132.171875 188.460938 132.152344 188.289062 132.113281 188.117188 C 132.316406 163.972656 148.496094 141.890625 172.890625 135.347656 C 177.644531 134.070312 182.417969 133.460938 187.121094 133.460938 C 211.410156 133.460938 233.699219 149.71875 240.277344 174.308594 C 246.847656 198.871094 235.691406 224.082031 214.699219 236.257812 Z M 214.699219 236.257812 " fill-opacity="1" fill-rule="nonzero"/></svg>